<svg width="87" height="101" viewBox="0 0 87 101" fill="none" xmlns="http://www.w3.org/2000/svg">
<circle cx="1.5" cy="1.5" r="1.5" fill="#AD142E"/>
<circle cx="49.5" cy="1.5" r="1.5" fill="#AD142E"/>
<circle cx="49.5" cy="57.5" r="1.5" fill="#AD142E"/>
<circle cx="1.5" cy="57.5" r="1.5" fill="#AD142E"/>
<circle cx="1.5" cy="29.5" r="1.5" fill="#AD142E"/>
<circle cx="49.5" cy="29.5" r="1.5" fill="#AD142E"/>
<circle cx="49.5" cy="85.5" r="1.5" fill="#AD142E"/>
<circle cx="1.5" cy="85.5" r="1.5" fill="#AD142E"/>
<circle cx="25.5" cy="1.5" r="1.5" fill="#AD142E"/>
<circle cx="73.5" cy="1.5" r="1.5" fill="#AD142E"/>
<circle cx="73.5" cy="57.5" r="1.5" fill="#AD142E"/>
<circle cx="25.5" cy="57.5" r="1.5" fill="#AD142E"/>
<circle cx="25.5" cy="29.5" r="1.5" fill="#AD142E"/>
<circle cx="73.5" cy="29.5" r="1.5" fill="#AD142E"/>
<circle cx="73.5" cy="85.5" r="1.5" fill="#AD142E"/>
<circle cx="25.5" cy="85.5" r="1.5" fill="#AD142E"/>
<circle cx="1.5" cy="15.5" r="1.5" fill="#AD142E"/>
<circle cx="49.5" cy="15.5" r="1.5" fill="#AD142E"/>
<circle cx="49.5" cy="71.5" r="1.5" fill="#AD142E"/>
<circle cx="1.5" cy="71.5" r="1.5" fill="#AD142E"/>
<circle cx="1.5" cy="43.5" r="1.5" fill="#AD142E"/>
<circle cx="49.5" cy="43.5" r="1.5" fill="#AD142E"/>
<circle cx="49.5" cy="99.5" r="1.5" fill="#AD142E"/>
<circle cx="1.5" cy="99.5" r="1.5" fill="#AD142E"/>
<circle cx="25.5" cy="15.5" r="1.5" fill="#AD142E"/>
<circle cx="73.5" cy="15.5" r="1.5" fill="#AD142E"/>
<circle cx="73.5" cy="71.5" r="1.5" fill="#AD142E"/>
<circle cx="25.5" cy="71.5" r="1.5" fill="#AD142E"/>
<circle cx="25.5" cy="43.5" r="1.5" fill="#AD142E"/>
<circle cx="73.5" cy="43.5" r="1.5" fill="#AD142E"/>
<circle cx="73.5" cy="99.5" r="1.5" fill="#AD142E"/>
<circle cx="25.5" cy="99.5" r="1.5" fill="#AD142E"/>
<circle cx="13.5" cy="1.5" r="1.5" fill="#AD142E"/>
<circle cx="61.5" cy="1.5" r="1.5" fill="#AD142E"/>
<circle cx="61.5" cy="57.5" r="1.5" fill="#AD142E"/>
<circle cx="13.5" cy="57.5" r="1.5" fill="#AD142E"/>
<circle cx="13.5" cy="29.5" r="1.5" fill="#AD142E"/>
<circle cx="61.5" cy="29.5" r="1.5" fill="#AD142E"/>
<circle cx="61.5" cy="85.5" r="1.5" fill="#AD142E"/>
<circle cx="13.5" cy="85.5" r="1.5" fill="#AD142E"/>
<circle cx="37.5" cy="1.5" r="1.5" fill="#AD142E"/>
<circle cx="85.5" cy="1.5" r="1.5" fill="#AD142E"/>
<circle cx="85.5" cy="57.5" r="1.5" fill="#AD142E"/>
<circle cx="37.5" cy="57.5" r="1.5" fill="#AD142E"/>
<circle cx="37.5" cy="29.5" r="1.5" fill="#AD142E"/>
<circle cx="85.5" cy="29.5" r="1.5" fill="#AD142E"/>
<circle cx="85.5" cy="85.5" r="1.5" fill="#AD142E"/>
<circle cx="37.5" cy="85.5" r="1.5" fill="#AD142E"/>
<circle cx="13.5" cy="15.5" r="1.5" fill="#AD142E"/>
<circle cx="61.5" cy="15.5" r="1.5" fill="#AD142E"/>
<circle cx="61.5" cy="71.5" r="1.5" fill="#AD142E"/>
<circle cx="13.5" cy="71.5" r="1.5" fill="#AD142E"/>
<circle cx="13.5" cy="43.5" r="1.5" fill="#AD142E"/>
<circle cx="61.5" cy="43.5" r="1.5" fill="#AD142E"/>
<circle cx="61.5" cy="99.5" r="1.5" fill="#AD142E"/>
<circle cx="13.5" cy="99.5" r="1.5" fill="#AD142E"/>
<circle cx="37.5" cy="15.5" r="1.5" fill="#AD142E"/>
<circle cx="85.5" cy="15.5" r="1.5" fill="#AD142E"/>
<circle cx="85.5" cy="71.5" r="1.5" fill="#AD142E"/>
<circle cx="37.5" cy="71.5" r="1.5" fill="#AD142E"/>
<circle cx="37.5" cy="43.5" r="1.5" fill="#AD142E"/>
<circle cx="85.5" cy="43.5" r="1.5" fill="#AD142E"/>
<circle cx="85.5" cy="99.5" r="1.5" fill="#AD142E"/>
<circle cx="37.5" cy="99.5" r="1.5" fill="#AD142E"/>
</svg>
