<svg width="88" height="102" viewBox="0 0 88 102" fill="none" xmlns="http://www.w3.org/2000/svg">
<circle cx="2" cy="2" r="2" fill="#AD142E"/>
<circle cx="50" cy="2" r="2" fill="#AD142E"/>
<circle cx="50" cy="58" r="2" fill="#AD142E"/>
<circle cx="2" cy="58" r="2" fill="#AD142E"/>
<circle cx="2" cy="30" r="2" fill="#AD142E"/>
<circle cx="50" cy="30" r="2" fill="#AD142E"/>
<circle cx="50" cy="86" r="2" fill="#AD142E"/>
<circle cx="2" cy="86" r="2" fill="#AD142E"/>
<circle cx="26" cy="2" r="2" fill="#AD142E"/>
<circle cx="74" cy="2" r="2" fill="#AD142E"/>
<circle cx="74" cy="58" r="2" fill="#AD142E"/>
<circle cx="26" cy="58" r="2" fill="#AD142E"/>
<circle cx="26" cy="30" r="2" fill="#AD142E"/>
<circle cx="74" cy="30" r="2" fill="#AD142E"/>
<circle cx="74" cy="86" r="2" fill="#AD142E"/>
<circle cx="26" cy="86" r="2" fill="#AD142E"/>
<circle cx="2" cy="16" r="2" fill="#AD142E"/>
<circle cx="50" cy="16" r="2" fill="#AD142E"/>
<circle cx="50" cy="72" r="2" fill="#AD142E"/>
<circle cx="2" cy="72" r="2" fill="#AD142E"/>
<circle cx="2" cy="44" r="2" fill="#AD142E"/>
<circle cx="50" cy="44" r="2" fill="#AD142E"/>
<circle cx="50" cy="100" r="2" fill="#AD142E"/>
<circle cx="2" cy="100" r="2" fill="#AD142E"/>
<circle cx="26" cy="16" r="2" fill="#AD142E"/>
<circle cx="74" cy="16" r="2" fill="#AD142E"/>
<circle cx="74" cy="72" r="2" fill="#AD142E"/>
<circle cx="26" cy="72" r="2" fill="#AD142E"/>
<circle cx="26" cy="44" r="2" fill="#AD142E"/>
<circle cx="74" cy="44" r="2" fill="#AD142E"/>
<circle cx="74" cy="100" r="2" fill="#AD142E"/>
<circle cx="26" cy="100" r="2" fill="#AD142E"/>
<circle cx="14" cy="2" r="2" fill="#AD142E"/>
<circle cx="62" cy="2" r="2" fill="#AD142E"/>
<circle cx="62" cy="58" r="2" fill="#AD142E"/>
<circle cx="14" cy="58" r="2" fill="#AD142E"/>
<circle cx="14" cy="30" r="2" fill="#AD142E"/>
<circle cx="62" cy="30" r="2" fill="#AD142E"/>
<circle cx="62" cy="86" r="2" fill="#AD142E"/>
<circle cx="14" cy="86" r="2" fill="#AD142E"/>
<circle cx="38" cy="2" r="2" fill="#AD142E"/>
<circle cx="86" cy="2" r="2" fill="#AD142E"/>
<circle cx="86" cy="58" r="2" fill="#AD142E"/>
<circle cx="38" cy="58" r="2" fill="#AD142E"/>
<circle cx="38" cy="30" r="2" fill="#AD142E"/>
<circle cx="86" cy="30" r="2" fill="#AD142E"/>
<circle cx="86" cy="86" r="2" fill="#AD142E"/>
<circle cx="38" cy="86" r="2" fill="#AD142E"/>
<circle cx="14" cy="16" r="2" fill="#AD142E"/>
<circle cx="62" cy="16" r="2" fill="#AD142E"/>
<circle cx="62" cy="72" r="2" fill="#AD142E"/>
<circle cx="14" cy="72" r="2" fill="#AD142E"/>
<circle cx="14" cy="44" r="2" fill="#AD142E"/>
<circle cx="62" cy="44" r="2" fill="#AD142E"/>
<circle cx="62" cy="100" r="2" fill="#AD142E"/>
<circle cx="14" cy="100" r="2" fill="#AD142E"/>
<circle cx="38" cy="16" r="2" fill="#AD142E"/>
<circle cx="86" cy="16" r="2" fill="#AD142E"/>
<circle cx="86" cy="72" r="2" fill="#AD142E"/>
<circle cx="38" cy="72" r="2" fill="#AD142E"/>
<circle cx="38" cy="44" r="2" fill="#AD142E"/>
<circle cx="86" cy="44" r="2" fill="#AD142E"/>
<circle cx="86" cy="100" r="2" fill="#AD142E"/>
<circle cx="38" cy="100" r="2" fill="#AD142E"/>
</svg>
