<svg width="1057" height="587" viewBox="0 0 1057 587" fill="none" xmlns="http://www.w3.org/2000/svg">
<rect y="-0.000244141" width="994" height="587" rx="3" fill="black"/>
<g filter="url(#filter0_d_200_293)">
<rect x="150" y="112" width="346" height="216" rx="4" stroke="url(#paint0_linear_200_293)" stroke-width="2" shape-rendering="crispEdges"/>
</g>
<g filter="url(#filter1_d_200_293)">
<rect x="1" y="-1" width="152" height="216" rx="4" transform="matrix(1 0 0 -1 893 536)" stroke="url(#paint1_linear_200_293)" stroke-width="2" shape-rendering="crispEdges"/>
</g>
<g filter="url(#filter2_d_200_293)">
<rect x="227" y="158" width="541" height="271" rx="5" fill="#C31432"/>
</g>
<path d="M290.054 257V256.105L293.415 252.426C293.809 251.995 294.134 251.62 294.389 251.302C294.644 250.981 294.833 250.679 294.956 250.397C295.082 250.112 295.145 249.814 295.145 249.503C295.145 249.145 295.059 248.835 294.886 248.573C294.717 248.311 294.485 248.109 294.19 247.966C293.895 247.824 293.564 247.753 293.196 247.753C292.805 247.753 292.464 247.834 292.172 247.996C291.884 248.155 291.66 248.379 291.501 248.667C291.345 248.956 291.267 249.294 291.267 249.682H290.094C290.094 249.085 290.231 248.561 290.506 248.111C290.781 247.66 291.156 247.308 291.63 247.057C292.107 246.805 292.643 246.679 293.236 246.679C293.832 246.679 294.361 246.805 294.822 247.057C295.282 247.308 295.644 247.648 295.906 248.076C296.167 248.503 296.298 248.979 296.298 249.503C296.298 249.877 296.23 250.243 296.094 250.601C295.962 250.956 295.73 251.352 295.398 251.79C295.07 252.224 294.615 252.754 294.031 253.38L291.744 255.826V255.906H296.477V257H290.054ZM301.852 257.139C301.103 257.139 300.464 256.935 299.938 256.527C299.411 256.116 299.008 255.522 298.729 254.743C298.451 253.96 298.312 253.016 298.312 251.909C298.312 250.808 298.451 249.869 298.729 249.09C299.011 248.308 299.415 247.711 299.942 247.3C300.473 246.886 301.109 246.679 301.852 246.679C302.594 246.679 303.229 246.886 303.756 247.3C304.286 247.711 304.69 248.308 304.969 249.09C305.25 249.869 305.391 250.808 305.391 251.909C305.391 253.016 305.252 253.96 304.974 254.743C304.695 255.522 304.293 256.116 303.766 256.527C303.239 256.935 302.601 257.139 301.852 257.139ZM301.852 256.045C302.594 256.045 303.171 255.687 303.582 254.971C303.993 254.255 304.198 253.235 304.198 251.909C304.198 251.027 304.104 250.277 303.915 249.657C303.729 249.037 303.461 248.565 303.109 248.24C302.761 247.915 302.342 247.753 301.852 247.753C301.116 247.753 300.541 248.116 300.126 248.841C299.712 249.564 299.505 250.586 299.505 251.909C299.505 252.79 299.598 253.54 299.783 254.156C299.969 254.772 300.236 255.241 300.584 255.563C300.935 255.884 301.358 256.045 301.852 256.045ZM310.86 246.818V257H309.627V248.111H309.567L307.082 249.761V248.508L309.627 246.818H310.86ZM317.03 246.679C317.447 246.682 317.865 246.762 318.283 246.917C318.7 247.073 319.081 247.332 319.426 247.693C319.771 248.051 320.048 248.54 320.256 249.16C320.465 249.779 320.57 250.557 320.57 251.491C320.57 252.396 320.483 253.2 320.311 253.902C320.142 254.602 319.897 255.192 319.575 255.672C319.257 256.153 318.869 256.518 318.412 256.766C317.958 257.015 317.444 257.139 316.871 257.139C316.301 257.139 315.792 257.026 315.344 256.801C314.9 256.572 314.536 256.256 314.251 255.851C313.969 255.444 313.788 254.971 313.709 254.434H314.922C315.031 254.902 315.248 255.288 315.573 255.593C315.901 255.894 316.334 256.045 316.871 256.045C317.656 256.045 318.276 255.702 318.73 255.016C319.188 254.33 319.416 253.361 319.416 252.108H319.337C319.151 252.386 318.931 252.626 318.675 252.829C318.42 253.031 318.137 253.187 317.825 253.296C317.514 253.405 317.182 253.46 316.831 253.46C316.248 253.46 315.712 253.316 315.225 253.027C314.741 252.736 314.353 252.336 314.062 251.829C313.773 251.319 313.629 250.736 313.629 250.079C313.629 249.456 313.768 248.886 314.047 248.369C314.329 247.849 314.723 247.434 315.23 247.126C315.741 246.818 316.34 246.669 317.03 246.679ZM317.03 247.772C316.612 247.772 316.236 247.877 315.901 248.086C315.57 248.291 315.306 248.57 315.111 248.921C314.919 249.269 314.822 249.655 314.822 250.079C314.822 250.504 314.915 250.89 315.101 251.238C315.29 251.582 315.547 251.857 315.871 252.063C316.2 252.265 316.572 252.366 316.99 252.366C317.305 252.366 317.598 252.305 317.87 252.182C318.142 252.056 318.379 251.886 318.581 251.67C318.786 251.451 318.947 251.205 319.063 250.929C319.179 250.651 319.237 250.361 319.237 250.059C319.237 249.662 319.141 249.289 318.949 248.941C318.76 248.593 318.498 248.311 318.163 248.096C317.832 247.88 317.454 247.772 317.03 247.772ZM326.92 251.362V252.456H322.465V251.362H326.92ZM328.486 257V256.105L331.846 252.426C332.241 251.995 332.566 251.62 332.821 251.302C333.076 250.981 333.265 250.679 333.388 250.397C333.514 250.112 333.577 249.814 333.577 249.503C333.577 249.145 333.49 248.835 333.318 248.573C333.149 248.311 332.917 248.109 332.622 247.966C332.327 247.824 331.996 247.753 331.628 247.753C331.237 247.753 330.895 247.834 330.604 247.996C330.315 248.155 330.091 248.379 329.932 248.667C329.777 248.956 329.699 249.294 329.699 249.682H328.525C328.525 249.085 328.663 248.561 328.938 248.111C329.213 247.66 329.588 247.308 330.062 247.057C330.539 246.805 331.074 246.679 331.667 246.679C332.264 246.679 332.793 246.805 333.253 247.057C333.714 247.308 334.075 247.648 334.337 248.076C334.599 248.503 334.73 248.979 334.73 249.503C334.73 249.877 334.662 250.243 334.526 250.601C334.394 250.956 334.162 251.352 333.83 251.79C333.502 252.224 333.046 252.754 332.463 253.38L330.176 255.826V255.906H334.909V257H328.486ZM340.283 257.139C339.534 257.139 338.896 256.935 338.369 256.527C337.842 256.116 337.439 255.522 337.161 254.743C336.883 253.96 336.743 253.016 336.743 251.909C336.743 250.808 336.883 249.869 337.161 249.09C337.443 248.308 337.847 247.711 338.374 247.3C338.904 246.886 339.541 246.679 340.283 246.679C341.026 246.679 341.66 246.886 342.187 247.3C342.718 247.711 343.122 248.308 343.4 249.09C343.682 249.869 343.823 250.808 343.823 251.909C343.823 253.016 343.684 253.96 343.405 254.743C343.127 255.522 342.724 256.116 342.197 256.527C341.67 256.935 341.032 257.139 340.283 257.139ZM340.283 256.045C341.026 256.045 341.602 255.687 342.013 254.971C342.424 254.255 342.63 253.235 342.63 251.909C342.63 251.027 342.535 250.277 342.346 249.657C342.161 249.037 341.892 248.565 341.541 248.24C341.193 247.915 340.774 247.753 340.283 247.753C339.547 247.753 338.972 248.116 338.558 248.841C338.144 249.564 337.937 250.586 337.937 251.909C337.937 252.79 338.029 253.54 338.215 254.156C338.401 254.772 338.667 255.241 339.015 255.563C339.367 255.884 339.789 256.045 340.283 256.045ZM345.712 257V256.105L349.073 252.426C349.467 251.995 349.792 251.62 350.047 251.302C350.303 250.981 350.492 250.679 350.614 250.397C350.74 250.112 350.803 249.814 350.803 249.503C350.803 249.145 350.717 248.835 350.545 248.573C350.376 248.311 350.144 248.109 349.849 247.966C349.554 247.824 349.222 247.753 348.854 247.753C348.463 247.753 348.122 247.834 347.83 247.996C347.542 248.155 347.318 248.379 347.159 248.667C347.003 248.956 346.925 249.294 346.925 249.682H345.752C345.752 249.085 345.89 248.561 346.165 248.111C346.44 247.66 346.814 247.308 347.288 247.057C347.765 246.805 348.301 246.679 348.894 246.679C349.491 246.679 350.019 246.805 350.48 247.057C350.941 247.308 351.302 247.648 351.564 248.076C351.826 248.503 351.956 248.979 351.956 249.503C351.956 249.877 351.889 250.243 351.753 250.601C351.62 250.956 351.388 251.352 351.057 251.79C350.729 252.224 350.273 252.754 349.689 253.38L347.403 255.826V255.906H352.135V257H345.712ZM353.731 254.912V253.897L358.206 246.818H358.942V248.389H358.444L355.064 253.738V253.818H361.089V254.912H353.731ZM358.524 257V254.603V254.131V246.818H359.697V257H358.524ZM297.193 275C297.084 274.665 296.94 274.365 296.761 274.1C296.585 273.831 296.375 273.603 296.129 273.414C295.887 273.225 295.612 273.081 295.304 272.981C294.996 272.882 294.658 272.832 294.29 272.832C293.687 272.832 293.138 272.988 292.644 273.299C292.15 273.611 291.758 274.07 291.466 274.677C291.174 275.283 291.028 276.027 291.028 276.909C291.028 277.79 291.176 278.535 291.471 279.141C291.766 279.748 292.165 280.207 292.669 280.518C293.173 280.83 293.74 280.986 294.369 280.986C294.953 280.986 295.466 280.861 295.911 280.613C296.358 280.361 296.706 280.006 296.955 279.549C297.206 279.088 297.332 278.546 297.332 277.923L297.71 278.003H294.648V276.909H298.526V278.003C298.526 278.841 298.347 279.57 297.989 280.19C297.634 280.81 297.143 281.29 296.517 281.632C295.894 281.97 295.178 282.139 294.369 282.139C293.468 282.139 292.676 281.927 291.993 281.503C291.313 281.078 290.783 280.475 290.402 279.693C290.024 278.911 289.835 277.983 289.835 276.909C289.835 276.103 289.943 275.379 290.158 274.736C290.377 274.09 290.685 273.54 291.083 273.086C291.481 272.632 291.951 272.284 292.495 272.042C293.039 271.8 293.637 271.679 294.29 271.679C294.827 271.679 295.327 271.76 295.791 271.922C296.259 272.081 296.674 272.308 297.039 272.603C297.407 272.895 297.714 273.245 297.959 273.652C298.204 274.057 298.373 274.506 298.466 275H297.193ZM300.637 282V271.818H304.078C304.876 271.818 305.529 271.962 306.036 272.25C306.547 272.536 306.925 272.922 307.17 273.409C307.415 273.896 307.538 274.44 307.538 275.04C307.538 275.639 307.415 276.185 307.17 276.675C306.928 277.166 306.553 277.557 306.046 277.848C305.539 278.137 304.89 278.281 304.097 278.281H301.632V277.187H304.058C304.605 277.187 305.044 277.093 305.375 276.904C305.707 276.715 305.947 276.46 306.096 276.138C306.249 275.813 306.325 275.447 306.325 275.04C306.325 274.632 306.249 274.267 306.096 273.946C305.947 273.624 305.705 273.372 305.37 273.19C305.035 273.004 304.591 272.912 304.038 272.912H301.87V282H300.637ZM308.903 282H307.61L311.349 271.818H312.621L316.36 282H315.067L312.025 273.429H311.945L308.903 282ZM309.38 278.022H314.59V279.116H309.38V278.022ZM318.642 280.697C318.397 280.697 318.186 280.609 318.01 280.434C317.835 280.258 317.747 280.048 317.747 279.802C317.747 279.557 317.835 279.347 318.01 279.171C318.186 278.995 318.397 278.907 318.642 278.907C318.887 278.907 319.098 278.995 319.273 279.171C319.449 279.347 319.537 279.557 319.537 279.802C319.537 279.965 319.495 280.114 319.412 280.25C319.333 280.386 319.225 280.495 319.089 280.578C318.957 280.657 318.808 280.697 318.642 280.697ZM318.642 275.547C318.397 275.547 318.186 275.459 318.01 275.283C317.835 275.107 317.747 274.897 317.747 274.652C317.747 274.406 317.835 274.196 318.01 274.02C318.186 273.845 318.397 273.757 318.642 273.757C318.887 273.757 319.098 273.845 319.273 274.02C319.449 274.196 319.537 274.406 319.537 274.652C319.537 274.814 319.495 274.963 319.412 275.099C319.333 275.235 319.225 275.344 319.089 275.427C318.957 275.507 318.808 275.547 318.642 275.547ZM329 282.139C328.344 282.139 327.759 282.026 327.245 281.801C326.735 281.576 326.329 281.262 326.027 280.861C325.729 280.457 325.566 279.988 325.54 279.454H326.793C326.819 279.782 326.932 280.066 327.131 280.304C327.33 280.54 327.59 280.722 327.911 280.851C328.233 280.981 328.589 281.045 328.98 281.045C329.418 281.045 329.806 280.969 330.144 280.817C330.482 280.664 330.747 280.452 330.939 280.18C331.131 279.908 331.227 279.594 331.227 279.236C331.227 278.861 331.135 278.531 330.949 278.246C330.763 277.958 330.492 277.732 330.134 277.57C329.776 277.408 329.338 277.326 328.821 277.326H328.006V276.233H328.821C329.226 276.233 329.58 276.16 329.885 276.014C330.193 275.868 330.434 275.663 330.606 275.397C330.782 275.132 330.869 274.821 330.869 274.463C330.869 274.118 330.793 273.818 330.641 273.563C330.488 273.308 330.273 273.109 329.994 272.966C329.719 272.824 329.395 272.753 329.02 272.753C328.669 272.753 328.337 272.817 328.026 272.946C327.718 273.072 327.466 273.256 327.27 273.498C327.075 273.737 326.968 274.025 326.952 274.363H325.759C325.779 273.83 325.939 273.362 326.241 272.961C326.543 272.557 326.937 272.242 327.424 272.017C327.915 271.791 328.453 271.679 329.04 271.679C329.67 271.679 330.21 271.806 330.661 272.062C331.111 272.313 331.458 272.647 331.7 273.061C331.942 273.475 332.063 273.923 332.063 274.403C332.063 274.977 331.912 275.465 331.61 275.87C331.312 276.274 330.906 276.554 330.392 276.71V276.79C331.035 276.896 331.537 277.169 331.899 277.61C332.26 278.047 332.441 278.589 332.441 279.236C332.441 279.789 332.29 280.286 331.988 280.727C331.69 281.165 331.282 281.509 330.765 281.761C330.248 282.013 329.66 282.139 329 282.139ZM335.034 282.079C334.789 282.079 334.579 281.991 334.403 281.816C334.227 281.64 334.14 281.43 334.14 281.184C334.14 280.939 334.227 280.729 334.403 280.553C334.579 280.377 334.789 280.29 335.034 280.29C335.28 280.29 335.49 280.377 335.666 280.553C335.842 280.729 335.929 280.939 335.929 281.184C335.929 281.347 335.888 281.496 335.805 281.632C335.725 281.768 335.618 281.877 335.482 281.96C335.349 282.04 335.2 282.079 335.034 282.079ZM340.962 282.139C340.279 282.139 339.676 282.018 339.152 281.776C338.632 281.531 338.226 281.194 337.934 280.767C337.642 280.336 337.498 279.845 337.502 279.295C337.498 278.864 337.583 278.467 337.755 278.102C337.927 277.734 338.163 277.428 338.461 277.182C338.763 276.934 339.099 276.776 339.47 276.71V276.65C338.983 276.524 338.595 276.251 338.307 275.83C338.019 275.406 337.876 274.924 337.879 274.383C337.876 273.866 338.007 273.404 338.272 272.996C338.537 272.589 338.902 272.267 339.366 272.032C339.833 271.796 340.365 271.679 340.962 271.679C341.552 271.679 342.079 271.796 342.543 272.032C343.007 272.267 343.371 272.589 343.637 272.996C343.905 273.404 344.041 273.866 344.044 274.383C344.041 274.924 343.893 275.406 343.602 275.83C343.313 276.251 342.931 276.524 342.453 276.65V276.71C342.821 276.776 343.153 276.934 343.448 277.182C343.743 277.428 343.978 277.734 344.154 278.102C344.329 278.467 344.419 278.864 344.422 279.295C344.419 279.845 344.27 280.336 343.975 280.767C343.683 281.194 343.277 281.531 342.757 281.776C342.24 282.018 341.641 282.139 340.962 282.139ZM340.962 281.045C341.423 281.045 341.82 280.971 342.155 280.821C342.49 280.672 342.748 280.462 342.931 280.19C343.113 279.918 343.206 279.6 343.209 279.236C343.206 278.851 343.106 278.511 342.911 278.216C342.715 277.921 342.448 277.689 342.11 277.52C341.776 277.351 341.393 277.267 340.962 277.267C340.528 277.267 340.14 277.351 339.798 277.52C339.46 277.689 339.194 277.921 338.998 278.216C338.806 278.511 338.711 278.851 338.715 279.236C338.711 279.6 338.799 279.918 338.978 280.19C339.16 280.462 339.421 280.672 339.759 280.821C340.097 280.971 340.498 281.045 340.962 281.045ZM340.962 276.213C341.326 276.213 341.65 276.14 341.931 275.994C342.216 275.848 342.44 275.644 342.602 275.383C342.765 275.121 342.848 274.814 342.851 274.463C342.848 274.118 342.767 273.818 342.607 273.563C342.448 273.304 342.228 273.106 341.946 272.966C341.664 272.824 341.336 272.753 340.962 272.753C340.581 272.753 340.248 272.824 339.963 272.966C339.677 273.106 339.457 273.304 339.301 273.563C339.146 273.818 339.069 274.118 339.073 274.463C339.069 274.814 339.147 275.121 339.306 275.383C339.469 275.644 339.692 275.848 339.977 275.994C340.262 276.14 340.591 276.213 340.962 276.213ZM349.509 282.139C348.926 282.139 348.401 282.023 347.933 281.791C347.466 281.559 347.091 281.241 346.81 280.836C346.528 280.432 346.374 279.971 346.347 279.454H347.54C347.587 279.915 347.796 280.296 348.167 280.598C348.541 280.896 348.989 281.045 349.509 281.045C349.927 281.045 350.298 280.947 350.623 280.752C350.951 280.556 351.208 280.288 351.393 279.946C351.582 279.602 351.677 279.212 351.677 278.778C351.677 278.334 351.579 277.938 351.384 277.59C351.191 277.239 350.926 276.962 350.588 276.76C350.25 276.558 349.864 276.455 349.43 276.451C349.118 276.448 348.798 276.496 348.47 276.596C348.142 276.692 347.872 276.816 347.66 276.969L346.506 276.829L347.123 271.818H352.413V272.912H348.157L347.799 275.915H347.859C348.067 275.749 348.329 275.611 348.644 275.502C348.959 275.393 349.287 275.338 349.629 275.338C350.252 275.338 350.807 275.487 351.294 275.785C351.785 276.08 352.169 276.485 352.447 276.998C352.729 277.512 352.87 278.099 352.87 278.758C352.87 279.408 352.724 279.988 352.433 280.498C352.144 281.005 351.746 281.406 351.239 281.701C350.732 281.993 350.156 282.139 349.509 282.139Z" fill="white"/>
<path d="M290.264 231V216.454H296.088C297.158 216.454 298.051 216.613 298.766 216.93C299.481 217.247 300.018 217.688 300.378 218.251C300.738 218.81 300.918 219.454 300.918 220.183C300.918 220.751 300.804 221.251 300.577 221.682C300.349 222.108 300.037 222.458 299.639 222.733C299.246 223.003 298.796 223.194 298.29 223.308V223.45C298.844 223.474 299.362 223.63 299.845 223.919C300.333 224.208 300.728 224.612 301.031 225.133C301.334 225.649 301.486 226.265 301.486 226.98C301.486 227.752 301.294 228.441 300.911 229.047C300.532 229.648 299.971 230.124 299.227 230.474C298.484 230.825 297.568 231 296.479 231H290.264ZM293.339 228.486H295.847C296.704 228.486 297.329 228.322 297.722 227.995C298.115 227.664 298.311 227.224 298.311 226.674C298.311 226.272 298.214 225.917 298.02 225.609C297.826 225.301 297.549 225.06 297.189 224.885C296.834 224.71 296.41 224.622 295.918 224.622H293.339V228.486ZM293.339 222.541H295.619C296.041 222.541 296.415 222.468 296.741 222.321C297.073 222.169 297.333 221.956 297.523 221.682C297.717 221.407 297.814 221.078 297.814 220.694C297.814 220.169 297.627 219.745 297.253 219.423C296.884 219.101 296.358 218.94 295.676 218.94H293.339V222.541ZM303.43 231V220.091H306.363V221.994H306.477C306.676 221.317 307.01 220.806 307.478 220.46C307.947 220.11 308.487 219.934 309.098 219.934C309.249 219.934 309.413 219.944 309.588 219.963C309.763 219.982 309.917 220.008 310.049 220.041V222.726C309.907 222.683 309.711 222.645 309.46 222.612C309.209 222.579 308.979 222.562 308.771 222.562C308.326 222.562 307.928 222.659 307.578 222.853C307.232 223.043 306.958 223.308 306.754 223.649C306.555 223.99 306.456 224.383 306.456 224.828V231H303.43ZM311.614 231V220.091H314.639V231H311.614ZM313.134 218.684C312.684 218.684 312.298 218.535 311.976 218.237C311.659 217.934 311.5 217.572 311.5 217.15C311.5 216.734 311.659 216.376 311.976 216.078C312.298 215.775 312.684 215.623 313.134 215.623C313.583 215.623 313.967 215.775 314.284 216.078C314.606 216.376 314.767 216.734 314.767 217.15C314.767 217.572 314.606 217.934 314.284 218.237C313.967 218.535 313.583 218.684 313.134 218.684ZM321.978 235.318C320.998 235.318 320.157 235.183 319.456 234.913C318.76 234.648 318.206 234.286 317.794 233.826C317.382 233.367 317.115 232.851 316.992 232.278L319.79 231.902C319.875 232.12 320.01 232.323 320.195 232.513C320.38 232.702 320.623 232.853 320.926 232.967C321.234 233.085 321.608 233.145 322.049 233.145C322.707 233.145 323.249 232.984 323.675 232.662C324.106 232.344 324.321 231.812 324.321 231.064V229.068H324.194C324.061 229.371 323.862 229.657 323.597 229.927C323.332 230.197 322.991 230.417 322.574 230.588C322.158 230.758 321.66 230.844 321.083 230.844C320.264 230.844 319.518 230.654 318.846 230.275C318.178 229.892 317.645 229.307 317.248 228.521C316.855 227.73 316.658 226.731 316.658 225.524C316.658 224.288 316.859 223.256 317.262 222.427C317.664 221.599 318.199 220.978 318.867 220.567C319.539 220.155 320.275 219.949 321.076 219.949C321.686 219.949 322.198 220.053 322.61 220.261C323.022 220.465 323.353 220.72 323.604 221.028C323.86 221.331 324.056 221.629 324.194 221.923H324.307V220.091H327.311V231.106C327.311 232.034 327.084 232.811 326.63 233.436C326.175 234.061 325.545 234.53 324.74 234.842C323.94 235.159 323.019 235.318 321.978 235.318ZM322.042 228.571C322.529 228.571 322.941 228.45 323.277 228.209C323.618 227.962 323.879 227.612 324.059 227.157C324.243 226.698 324.336 226.149 324.336 225.51C324.336 224.87 324.246 224.317 324.066 223.848C323.886 223.374 323.625 223.007 323.284 222.747C322.944 222.486 322.529 222.356 322.042 222.356C321.544 222.356 321.125 222.491 320.784 222.761C320.444 223.026 320.185 223.396 320.01 223.869C319.835 224.343 319.748 224.889 319.748 225.51C319.748 226.139 319.835 226.684 320.01 227.143C320.19 227.598 320.448 227.951 320.784 228.201C321.125 228.448 321.544 228.571 322.042 228.571ZM332.745 224.693V231H329.719V216.454H332.659V222.015H332.787C333.033 221.371 333.431 220.867 333.98 220.503C334.53 220.133 335.219 219.949 336.047 219.949C336.805 219.949 337.465 220.114 338.029 220.446C338.597 220.772 339.037 221.244 339.35 221.859C339.667 222.47 339.823 223.201 339.819 224.054V231H336.793V224.594C336.798 223.921 336.627 223.398 336.282 223.024C335.941 222.65 335.462 222.463 334.847 222.463C334.435 222.463 334.07 222.55 333.753 222.726C333.441 222.901 333.194 223.156 333.015 223.493C332.839 223.824 332.749 224.224 332.745 224.693ZM345.31 231.206C344.614 231.206 343.994 231.085 343.45 230.844C342.905 230.597 342.474 230.235 342.157 229.757C341.844 229.274 341.688 228.673 341.688 227.953C341.688 227.347 341.799 226.838 342.022 226.426C342.245 226.014 342.548 225.683 342.931 225.432C343.315 225.181 343.75 224.991 344.238 224.863C344.73 224.736 345.246 224.646 345.786 224.594C346.421 224.527 346.932 224.466 347.32 224.409C347.709 224.347 347.99 224.257 348.165 224.139C348.341 224.021 348.428 223.845 348.428 223.613V223.571C348.428 223.121 348.286 222.773 348.002 222.527C347.723 222.281 347.325 222.157 346.809 222.157C346.264 222.157 345.831 222.278 345.509 222.52C345.187 222.756 344.974 223.055 344.87 223.415L342.072 223.187C342.214 222.524 342.493 221.951 342.91 221.469C343.326 220.981 343.864 220.607 344.522 220.346C345.185 220.081 345.952 219.949 346.823 219.949C347.429 219.949 348.009 220.02 348.563 220.162C349.122 220.304 349.617 220.524 350.048 220.822C350.483 221.12 350.826 221.504 351.077 221.973C351.328 222.437 351.454 222.993 351.454 223.642V231H348.585V229.487H348.499C348.324 229.828 348.09 230.129 347.796 230.389C347.503 230.645 347.15 230.846 346.738 230.993C346.326 231.135 345.85 231.206 345.31 231.206ZM346.177 229.118C346.622 229.118 347.015 229.03 347.356 228.855C347.697 228.675 347.964 228.433 348.158 228.13C348.353 227.827 348.45 227.484 348.45 227.101V225.943C348.355 226.004 348.225 226.061 348.059 226.113C347.898 226.161 347.716 226.206 347.512 226.248C347.308 226.286 347.105 226.322 346.901 226.355C346.698 226.383 346.513 226.409 346.347 226.433C345.992 226.485 345.682 226.568 345.417 226.682C345.152 226.795 344.946 226.949 344.799 227.143C344.652 227.333 344.579 227.569 344.579 227.853C344.579 228.265 344.728 228.58 345.026 228.798C345.329 229.011 345.713 229.118 346.177 229.118ZM353.801 231V220.091H356.685V222.015H356.812C357.04 221.376 357.419 220.872 357.949 220.503C358.479 220.133 359.114 219.949 359.852 219.949C360.6 219.949 361.237 220.136 361.763 220.51C362.288 220.879 362.639 221.381 362.814 222.015H362.928C363.15 221.39 363.553 220.891 364.135 220.517C364.722 220.138 365.416 219.949 366.216 219.949C367.234 219.949 368.06 220.273 368.695 220.922C369.334 221.566 369.653 222.479 369.653 223.663V231H366.635V224.26C366.635 223.654 366.474 223.199 366.152 222.896C365.83 222.593 365.428 222.442 364.945 222.442C364.395 222.442 363.967 222.617 363.659 222.967C363.351 223.313 363.197 223.77 363.197 224.338V231H360.264V224.196C360.264 223.661 360.11 223.235 359.803 222.917C359.5 222.6 359.099 222.442 358.602 222.442C358.266 222.442 357.963 222.527 357.693 222.697C357.428 222.863 357.217 223.097 357.061 223.4C356.905 223.699 356.827 224.049 356.827 224.451V231H353.801ZM375.877 216.454H379.321L382.638 222.719H382.78L386.097 216.454H389.542L384.236 225.858V231H381.182V225.858L375.877 216.454ZM393.808 231.213C392.705 231.213 391.751 230.978 390.946 230.51C390.146 230.036 389.528 229.378 389.092 228.535C388.657 227.688 388.439 226.705 388.439 225.588C388.439 224.461 388.657 223.476 389.092 222.633C389.528 221.786 390.146 221.128 390.946 220.659C391.751 220.185 392.705 219.949 393.808 219.949C394.911 219.949 395.863 220.185 396.663 220.659C397.468 221.128 398.089 221.786 398.524 222.633C398.96 223.476 399.178 224.461 399.178 225.588C399.178 226.705 398.96 227.688 398.524 228.535C398.089 229.378 397.468 230.036 396.663 230.51C395.863 230.978 394.911 231.213 393.808 231.213ZM393.822 228.869C394.324 228.869 394.743 228.727 395.08 228.443C395.416 228.154 395.669 227.761 395.839 227.264C396.015 226.767 396.102 226.201 396.102 225.567C396.102 224.932 396.015 224.366 395.839 223.869C395.669 223.372 395.416 222.979 395.08 222.69C394.743 222.401 394.324 222.257 393.822 222.257C393.316 222.257 392.89 222.401 392.544 222.69C392.203 222.979 391.945 223.372 391.77 223.869C391.599 224.366 391.514 224.932 391.514 225.567C391.514 226.201 391.599 226.767 391.77 227.264C391.945 227.761 392.203 228.154 392.544 228.443C392.89 228.727 393.316 228.869 393.822 228.869ZM408.141 226.355V220.091H411.166V231H408.261V229.018H408.148C407.902 229.657 407.492 230.171 406.919 230.559C406.351 230.948 405.657 231.142 404.838 231.142C404.109 231.142 403.467 230.976 402.913 230.645C402.359 230.313 401.926 229.842 401.614 229.231C401.306 228.62 401.15 227.889 401.145 227.037V220.091H404.17V226.497C404.175 227.141 404.348 227.65 404.689 228.024C405.03 228.398 405.487 228.585 406.06 228.585C406.424 228.585 406.765 228.502 407.082 228.336C407.4 228.166 407.655 227.915 407.849 227.584C408.048 227.252 408.145 226.843 408.141 226.355ZM416.612 224.693V231H413.586V220.091H416.47V222.015H416.598C416.839 221.381 417.244 220.879 417.812 220.51C418.38 220.136 419.069 219.949 419.879 219.949C420.636 219.949 421.297 220.114 421.86 220.446C422.424 220.777 422.862 221.251 423.174 221.866C423.487 222.477 423.643 223.206 423.643 224.054V231H420.618V224.594C420.622 223.926 420.452 223.405 420.106 223.031C419.761 222.652 419.285 222.463 418.679 222.463C418.271 222.463 417.912 222.55 417.599 222.726C417.291 222.901 417.05 223.156 416.875 223.493C416.704 223.824 416.617 224.224 416.612 224.693ZM430.942 235.318C429.962 235.318 429.122 235.183 428.421 234.913C427.725 234.648 427.171 234.286 426.759 233.826C426.347 233.367 426.08 232.851 425.957 232.278L428.755 231.902C428.84 232.12 428.975 232.323 429.16 232.513C429.344 232.702 429.588 232.853 429.891 232.967C430.199 233.085 430.573 233.145 431.013 233.145C431.672 233.145 432.214 232.984 432.64 232.662C433.071 232.344 433.286 231.812 433.286 231.064V229.068H433.158C433.026 229.371 432.827 229.657 432.562 229.927C432.297 230.197 431.956 230.417 431.539 230.588C431.122 230.758 430.625 230.844 430.048 230.844C429.228 230.844 428.483 230.654 427.81 230.275C427.143 229.892 426.61 229.307 426.212 228.521C425.819 227.73 425.623 226.731 425.623 225.524C425.623 224.288 425.824 223.256 426.227 222.427C426.629 221.599 427.164 220.978 427.832 220.567C428.504 220.155 429.24 219.949 430.04 219.949C430.651 219.949 431.163 220.053 431.575 220.261C431.987 220.465 432.318 220.72 432.569 221.028C432.825 221.331 433.021 221.629 433.158 221.923H433.272V220.091H436.276V231.106C436.276 232.034 436.049 232.811 435.594 233.436C435.14 234.061 434.51 234.53 433.705 234.842C432.905 235.159 431.984 235.318 430.942 235.318ZM431.006 228.571C431.494 228.571 431.906 228.45 432.242 228.209C432.583 227.962 432.844 227.612 433.023 227.157C433.208 226.698 433.3 226.149 433.3 225.51C433.3 224.87 433.21 224.317 433.031 223.848C432.851 223.374 432.59 223.007 432.249 222.747C431.908 222.486 431.494 222.356 431.006 222.356C430.509 222.356 430.09 222.491 429.749 222.761C429.408 223.026 429.15 223.396 428.975 223.869C428.8 224.343 428.712 224.889 428.712 225.51C428.712 226.139 428.8 226.684 428.975 227.143C429.155 227.598 429.413 227.951 429.749 228.201C430.09 228.448 430.509 228.571 431.006 228.571ZM452.354 216.454H455.429V225.9C455.429 226.961 455.176 227.889 454.669 228.684C454.167 229.48 453.464 230.1 452.56 230.545C451.656 230.986 450.602 231.206 449.4 231.206C448.192 231.206 447.136 230.986 446.232 230.545C445.328 230.1 444.624 229.48 444.123 228.684C443.621 227.889 443.37 226.961 443.37 225.9V216.454H446.445V225.638C446.445 226.192 446.566 226.684 446.807 227.115C447.053 227.546 447.399 227.884 447.844 228.13C448.289 228.377 448.808 228.5 449.4 228.5C449.996 228.5 450.515 228.377 450.955 228.13C451.4 227.884 451.743 227.546 451.985 227.115C452.231 226.684 452.354 226.192 452.354 225.638V216.454ZM460.928 224.693V231H457.903V220.091H460.786V222.015H460.914C461.156 221.381 461.56 220.879 462.129 220.51C462.697 220.136 463.386 219.949 464.195 219.949C464.953 219.949 465.613 220.114 466.177 220.446C466.74 220.777 467.178 221.251 467.491 221.866C467.803 222.477 467.96 223.206 467.96 224.054V231H464.934V224.594C464.939 223.926 464.768 223.405 464.423 223.031C464.077 222.652 463.601 222.463 462.995 222.463C462.588 222.463 462.228 222.55 461.915 222.726C461.608 222.901 461.366 223.156 461.191 223.493C461.021 223.824 460.933 224.224 460.928 224.693ZM470.344 231V220.091H473.37V231H470.344ZM471.864 218.684C471.414 218.684 471.028 218.535 470.706 218.237C470.389 217.934 470.23 217.572 470.23 217.15C470.23 216.734 470.389 216.376 470.706 216.078C471.028 215.775 471.414 215.623 471.864 215.623C472.314 215.623 472.697 215.775 473.015 216.078C473.337 216.376 473.498 216.734 473.498 217.15C473.498 217.572 473.337 217.934 473.015 218.237C472.697 218.535 472.314 218.684 471.864 218.684ZM485.964 220.091L482.15 231H478.741L474.927 220.091H478.123L480.388 227.896H480.502L482.761 220.091H485.964ZM492.132 231.213C491.01 231.213 490.044 230.986 489.234 230.531C488.429 230.072 487.809 229.423 487.374 228.585C486.938 227.742 486.72 226.745 486.72 225.595C486.72 224.473 486.938 223.488 487.374 222.64C487.809 221.793 488.422 221.132 489.213 220.659C490.009 220.185 490.941 219.949 492.011 219.949C492.731 219.949 493.401 220.065 494.021 220.297C494.646 220.524 495.191 220.867 495.655 221.326C496.124 221.786 496.488 222.363 496.749 223.059C497.009 223.751 497.139 224.56 497.139 225.488V226.319H487.928V224.444H494.291C494.291 224.009 494.196 223.623 494.007 223.287C493.818 222.951 493.555 222.688 493.219 222.498C492.887 222.304 492.501 222.207 492.061 222.207C491.602 222.207 491.195 222.314 490.839 222.527C490.489 222.735 490.214 223.017 490.016 223.372C489.817 223.722 489.715 224.113 489.71 224.544V226.326C489.71 226.866 489.81 227.333 490.009 227.726C490.212 228.119 490.499 228.422 490.868 228.635C491.237 228.848 491.675 228.954 492.182 228.954C492.518 228.954 492.826 228.907 493.105 228.812C493.384 228.718 493.624 228.576 493.822 228.386C494.021 228.197 494.173 227.965 494.277 227.69L497.075 227.875C496.933 228.547 496.642 229.134 496.202 229.636C495.766 230.133 495.203 230.522 494.511 230.801C493.825 231.076 493.032 231.213 492.132 231.213ZM499.114 231V220.091H502.047V221.994H502.161C502.359 221.317 502.693 220.806 503.162 220.46C503.631 220.11 504.17 219.934 504.781 219.934C504.933 219.934 505.096 219.944 505.271 219.963C505.446 219.982 505.6 220.008 505.733 220.041V222.726C505.591 222.683 505.394 222.645 505.143 222.612C504.893 222.579 504.663 222.562 504.455 222.562C504.009 222.562 503.612 222.659 503.261 222.853C502.916 223.043 502.641 223.308 502.438 223.649C502.239 223.99 502.139 224.383 502.139 224.828V231H499.114ZM516.374 223.201L513.604 223.372C513.557 223.135 513.455 222.922 513.299 222.733C513.142 222.539 512.936 222.385 512.681 222.271C512.43 222.153 512.129 222.094 511.779 222.094C511.31 222.094 510.915 222.193 510.593 222.392C510.271 222.586 510.11 222.846 510.11 223.173C510.11 223.433 510.214 223.654 510.422 223.834C510.631 224.013 510.988 224.158 511.495 224.267L513.469 224.665C514.53 224.882 515.32 225.233 515.841 225.716C516.362 226.199 516.623 226.833 516.623 227.619C516.623 228.334 516.412 228.961 515.99 229.501C515.574 230.041 515.001 230.462 514.272 230.765C513.547 231.064 512.712 231.213 511.765 231.213C510.32 231.213 509.17 230.912 508.313 230.311C507.461 229.705 506.961 228.881 506.814 227.839L509.79 227.683C509.88 228.123 510.098 228.46 510.444 228.692C510.789 228.919 511.232 229.032 511.772 229.032C512.302 229.032 512.728 228.931 513.05 228.727C513.377 228.519 513.542 228.251 513.547 227.924C513.542 227.65 513.426 227.425 513.199 227.25C512.972 227.07 512.622 226.933 512.148 226.838L510.259 226.461C509.194 226.248 508.4 225.879 507.88 225.353C507.364 224.828 507.105 224.158 507.105 223.344C507.105 222.643 507.295 222.039 507.674 221.532C508.057 221.026 508.595 220.635 509.286 220.361C509.982 220.086 510.796 219.949 511.729 219.949C513.107 219.949 514.191 220.24 514.982 220.822C515.777 221.405 516.241 222.198 516.374 223.201ZM518.528 231V220.091H521.553V231H518.528ZM520.048 218.684C519.598 218.684 519.212 218.535 518.89 218.237C518.573 217.934 518.414 217.572 518.414 217.15C518.414 216.734 518.573 216.376 518.89 216.078C519.212 215.775 519.598 215.623 520.048 215.623C520.497 215.623 520.881 215.775 521.198 216.078C521.52 216.376 521.681 216.734 521.681 217.15C521.681 217.572 521.52 217.934 521.198 218.237C520.881 218.535 520.497 218.684 520.048 218.684ZM529.779 220.091V222.363H523.21V220.091H529.779ZM524.701 217.477H527.727V227.647C527.727 227.927 527.77 228.145 527.855 228.301C527.94 228.452 528.058 228.559 528.21 228.62C528.366 228.682 528.546 228.713 528.75 228.713C528.892 228.713 529.034 228.701 529.176 228.677C529.318 228.649 529.427 228.628 529.502 228.613L529.978 230.865C529.827 230.912 529.614 230.967 529.339 231.028C529.065 231.094 528.731 231.135 528.338 231.149C527.609 231.177 526.969 231.08 526.42 230.858C525.876 230.635 525.452 230.29 525.149 229.821C524.846 229.352 524.697 228.76 524.701 228.045V217.477ZM533.618 235.091C533.235 235.091 532.875 235.06 532.539 234.998C532.207 234.942 531.933 234.868 531.715 234.778L532.397 232.52C532.752 232.629 533.071 232.688 533.355 232.697C533.644 232.707 533.893 232.64 534.101 232.498C534.314 232.356 534.487 232.115 534.62 231.774L534.797 231.312L530.884 220.091H534.066L536.324 228.102H536.438L538.718 220.091H541.921L537.681 232.179C537.477 232.766 537.2 233.277 536.85 233.713C536.504 234.153 536.066 234.492 535.536 234.728C535.006 234.97 534.366 235.091 533.618 235.091Z" fill="white"/>
<path d="M290.585 322.909H292.477L296.926 333.775H297.08L301.528 322.909H303.42V336H301.938V326.054H301.81L297.719 336H296.287L292.196 326.054H292.068V336H290.585V322.909ZM309.284 336.23C308.661 336.23 308.097 336.113 307.59 335.878C307.083 335.64 306.68 335.297 306.382 334.849C306.083 334.397 305.934 333.852 305.934 333.213C305.934 332.65 306.045 332.194 306.267 331.845C306.488 331.491 306.784 331.214 307.155 331.014C307.526 330.814 307.935 330.665 308.382 330.567C308.834 330.464 309.288 330.383 309.744 330.324C310.34 330.247 310.824 330.189 311.195 330.151C311.57 330.108 311.843 330.038 312.013 329.94C312.188 329.842 312.275 329.672 312.275 329.429V329.378C312.275 328.747 312.102 328.257 311.757 327.907C311.416 327.558 310.899 327.383 310.204 327.383C309.484 327.383 308.919 327.541 308.51 327.856C308.101 328.172 307.813 328.508 307.647 328.866L306.215 328.355C306.471 327.758 306.812 327.294 307.238 326.961C307.669 326.625 308.137 326.39 308.644 326.258C309.156 326.122 309.659 326.054 310.153 326.054C310.468 326.054 310.83 326.092 311.24 326.169C311.653 326.241 312.051 326.393 312.435 326.623C312.823 326.853 313.144 327.2 313.4 327.665C313.656 328.129 313.784 328.751 313.784 329.531V336H312.275V334.67H312.198C312.096 334.883 311.926 335.111 311.687 335.354C311.448 335.597 311.131 335.804 310.735 335.974C310.338 336.145 309.855 336.23 309.284 336.23ZM309.514 334.875C310.11 334.875 310.613 334.758 311.022 334.523C311.436 334.289 311.747 333.986 311.955 333.616C312.169 333.245 312.275 332.855 312.275 332.446V331.065C312.211 331.142 312.07 331.212 311.853 331.276C311.64 331.336 311.393 331.389 311.112 331.436C310.835 331.478 310.564 331.517 310.3 331.551C310.04 331.581 309.829 331.606 309.667 331.628C309.275 331.679 308.909 331.762 308.568 331.877C308.231 331.988 307.958 332.156 307.749 332.382C307.545 332.603 307.443 332.906 307.443 333.29C307.443 333.814 307.637 334.21 308.024 334.478C308.416 334.743 308.913 334.875 309.514 334.875ZM316.537 326.182H318.045V336.716C318.045 337.321 317.941 337.845 317.732 338.288C317.528 338.731 317.217 339.074 316.799 339.317C316.386 339.56 315.864 339.682 315.233 339.682C315.182 339.682 315.131 339.682 315.08 339.682C315.028 339.682 314.977 339.682 314.926 339.682V338.275C314.977 338.275 315.024 338.275 315.067 338.275C315.109 338.275 315.156 338.275 315.207 338.275C315.668 338.275 316.004 338.139 316.217 337.866C316.43 337.598 316.537 337.214 316.537 336.716V326.182ZM317.278 324.545C316.984 324.545 316.731 324.445 316.518 324.245C316.309 324.045 316.205 323.804 316.205 323.522C316.205 323.241 316.309 323 316.518 322.8C316.731 322.6 316.984 322.5 317.278 322.5C317.572 322.5 317.824 322.6 318.033 322.8C318.246 323 318.352 323.241 318.352 323.522C318.352 323.804 318.246 324.045 318.033 324.245C317.824 324.445 317.572 324.545 317.278 324.545ZM324.797 336.204C323.911 336.204 323.133 335.993 322.464 335.571C321.799 335.15 321.279 334.559 320.904 333.801C320.534 333.042 320.348 332.156 320.348 331.142C320.348 330.119 320.534 329.226 320.904 328.464C321.279 327.701 321.799 327.108 322.464 326.687C323.133 326.265 323.911 326.054 324.797 326.054C325.683 326.054 326.459 326.265 327.124 326.687C327.793 327.108 328.313 327.701 328.683 328.464C329.058 329.226 329.246 330.119 329.246 331.142C329.246 332.156 329.058 333.042 328.683 333.801C328.313 334.559 327.793 335.15 327.124 335.571C326.459 335.993 325.683 336.204 324.797 336.204ZM324.797 334.849C325.47 334.849 326.024 334.677 326.459 334.331C326.894 333.986 327.215 333.532 327.424 332.97C327.633 332.407 327.737 331.798 327.737 331.142C327.737 330.486 327.633 329.874 327.424 329.307C327.215 328.741 326.894 328.282 326.459 327.933C326.024 327.584 325.47 327.409 324.797 327.409C324.124 327.409 323.57 327.584 323.135 327.933C322.7 328.282 322.379 328.741 322.17 329.307C321.961 329.874 321.857 330.486 321.857 331.142C321.857 331.798 321.961 332.407 322.17 332.97C322.379 333.532 322.7 333.986 323.135 334.331C323.57 334.677 324.124 334.849 324.797 334.849ZM331.549 336V326.182H333.006V327.665H333.108C333.287 327.179 333.611 326.785 334.08 326.482C334.549 326.179 335.077 326.028 335.665 326.028C335.776 326.028 335.914 326.03 336.081 326.035C336.247 326.039 336.373 326.045 336.458 326.054V327.588C336.407 327.575 336.289 327.556 336.106 327.53C335.927 327.5 335.738 327.486 335.537 327.486C335.06 327.486 334.634 327.586 334.259 327.786C333.888 327.982 333.594 328.255 333.377 328.604C333.164 328.949 333.057 329.344 333.057 329.787V336H331.549ZM339.345 336.102C339.03 336.102 338.759 335.989 338.534 335.763C338.308 335.537 338.195 335.267 338.195 334.951C338.195 334.636 338.308 334.366 338.534 334.14C338.759 333.914 339.03 333.801 339.345 333.801C339.661 333.801 339.931 333.914 340.157 334.14C340.383 334.366 340.496 334.636 340.496 334.951C340.496 335.16 340.443 335.352 340.336 335.527C340.234 335.701 340.095 335.842 339.921 335.949C339.75 336.051 339.558 336.102 339.345 336.102ZM339.345 328.815C339.03 328.815 338.759 328.702 338.534 328.476C338.308 328.25 338.195 327.98 338.195 327.665C338.195 327.349 338.308 327.079 338.534 326.853C338.759 326.627 339.03 326.514 339.345 326.514C339.661 326.514 339.931 326.627 340.157 326.853C340.383 327.079 340.496 327.349 340.496 327.665C340.496 327.873 340.443 328.065 340.336 328.24C340.234 328.415 340.095 328.555 339.921 328.662C339.75 328.764 339.558 328.815 339.345 328.815ZM348.47 336V322.909H352.893C353.92 322.909 354.76 323.094 355.412 323.465C356.068 323.831 356.554 324.328 356.869 324.954C357.184 325.581 357.342 326.28 357.342 327.051C357.342 327.822 357.184 328.523 356.869 329.154C356.558 329.785 356.077 330.287 355.425 330.662C354.773 331.033 353.937 331.219 352.919 331.219H349.748V329.812H352.868C353.571 329.812 354.135 329.691 354.562 329.448C354.988 329.205 355.297 328.877 355.488 328.464C355.684 328.046 355.782 327.575 355.782 327.051C355.782 326.527 355.684 326.058 355.488 325.645C355.297 325.231 354.986 324.907 354.555 324.673C354.125 324.434 353.554 324.315 352.842 324.315H350.055V336H348.47ZM366.646 328.38L365.291 328.764C365.205 328.538 365.08 328.319 364.914 328.106C364.752 327.888 364.53 327.709 364.249 327.569C363.968 327.428 363.607 327.358 363.169 327.358C362.568 327.358 362.067 327.496 361.666 327.773C361.27 328.046 361.072 328.393 361.072 328.815C361.072 329.19 361.208 329.486 361.481 329.704C361.754 329.921 362.18 330.102 362.759 330.247L364.217 330.605C365.095 330.818 365.749 331.144 366.179 331.583C366.61 332.018 366.825 332.578 366.825 333.264C366.825 333.826 366.663 334.329 366.339 334.772C366.019 335.216 365.572 335.565 364.997 335.821C364.421 336.076 363.752 336.204 362.99 336.204C361.988 336.204 361.159 335.987 360.503 335.552C359.847 335.118 359.431 334.483 359.257 333.647L360.688 333.29C360.825 333.818 361.083 334.214 361.462 334.478C361.845 334.743 362.346 334.875 362.964 334.875C363.667 334.875 364.225 334.726 364.639 334.427C365.056 334.125 365.265 333.763 365.265 333.341C365.265 333 365.146 332.714 364.907 332.484C364.669 332.25 364.302 332.075 363.808 331.96L362.171 331.576C361.272 331.363 360.612 331.033 360.19 330.586C359.772 330.134 359.563 329.569 359.563 328.892C359.563 328.338 359.719 327.848 360.03 327.422C360.345 326.995 360.774 326.661 361.315 326.418C361.86 326.175 362.478 326.054 363.169 326.054C364.14 326.054 364.903 326.267 365.457 326.693C366.015 327.119 366.411 327.682 366.646 328.38ZM370.067 339.682C369.811 339.682 369.583 339.66 369.383 339.618C369.183 339.579 369.044 339.541 368.968 339.503L369.351 338.173C369.718 338.267 370.042 338.301 370.323 338.275C370.604 338.25 370.853 338.124 371.071 337.898C371.292 337.677 371.495 337.317 371.678 336.818L371.959 336.051L368.328 326.182H369.965L372.675 334.005H372.777L375.488 326.182H377.124L372.956 337.432C372.769 337.939 372.537 338.358 372.26 338.691C371.983 339.027 371.661 339.277 371.294 339.439C370.932 339.601 370.523 339.682 370.067 339.682ZM382.752 336.204C381.832 336.204 381.039 335.987 380.374 335.552C379.71 335.118 379.198 334.519 378.84 333.756C378.482 332.993 378.303 332.122 378.303 331.142C378.303 330.145 378.487 329.265 378.853 328.502C379.224 327.735 379.739 327.136 380.4 326.706C381.065 326.271 381.84 326.054 382.727 326.054C383.417 326.054 384.039 326.182 384.593 326.437C385.147 326.693 385.601 327.051 385.955 327.511C386.308 327.971 386.528 328.508 386.613 329.122H385.104C384.989 328.674 384.734 328.278 384.337 327.933C383.945 327.584 383.417 327.409 382.752 327.409C382.164 327.409 381.648 327.562 381.205 327.869C380.766 328.172 380.423 328.6 380.176 329.154C379.933 329.704 379.812 330.349 379.812 331.091C379.812 331.849 379.931 332.51 380.17 333.072C380.413 333.635 380.754 334.071 381.192 334.383C381.636 334.694 382.156 334.849 382.752 334.849C383.144 334.849 383.5 334.781 383.82 334.645C384.139 334.508 384.41 334.312 384.631 334.057C384.853 333.801 385.011 333.494 385.104 333.136H386.613C386.528 333.716 386.317 334.238 385.98 334.702C385.648 335.162 385.207 335.529 384.657 335.802C384.112 336.07 383.477 336.204 382.752 336.204ZM390.327 330.094V336H388.818V322.909H390.327V327.716H390.455C390.685 327.209 391.03 326.806 391.49 326.508C391.955 326.205 392.572 326.054 393.344 326.054C394.013 326.054 394.599 326.188 395.102 326.456C395.604 326.721 395.994 327.128 396.271 327.677C396.553 328.223 396.693 328.917 396.693 329.761V336H395.185V329.863C395.185 329.084 394.982 328.481 394.577 328.054C394.177 327.624 393.621 327.409 392.909 327.409C392.415 327.409 391.972 327.513 391.58 327.722C391.192 327.931 390.885 328.236 390.659 328.636C390.438 329.037 390.327 329.522 390.327 330.094ZM403.442 336.204C402.555 336.204 401.778 335.993 401.108 335.571C400.444 335.15 399.924 334.559 399.549 333.801C399.178 333.042 398.993 332.156 398.993 331.142C398.993 330.119 399.178 329.226 399.549 328.464C399.924 327.701 400.444 327.108 401.108 326.687C401.778 326.265 402.555 326.054 403.442 326.054C404.328 326.054 405.104 326.265 405.768 326.687C406.437 327.108 406.957 327.701 407.328 328.464C407.703 329.226 407.89 330.119 407.89 331.142C407.89 332.156 407.703 333.042 407.328 333.801C406.957 334.559 406.437 335.15 405.768 335.571C405.104 335.993 404.328 336.204 403.442 336.204ZM403.442 334.849C404.115 334.849 404.669 334.677 405.104 334.331C405.538 333.986 405.86 333.532 406.069 332.97C406.278 332.407 406.382 331.798 406.382 331.142C406.382 330.486 406.278 329.874 406.069 329.307C405.86 328.741 405.538 328.282 405.104 327.933C404.669 327.584 404.115 327.409 403.442 327.409C402.768 327.409 402.214 327.584 401.78 327.933C401.345 328.282 401.023 328.741 400.814 329.307C400.606 329.874 400.501 330.486 400.501 331.142C400.501 331.798 400.606 332.407 400.814 332.97C401.023 333.532 401.345 333.986 401.78 334.331C402.214 334.677 402.768 334.849 403.442 334.849ZM411.702 322.909V336H410.193V322.909H411.702ZM418.453 336.204C417.567 336.204 416.789 335.993 416.12 335.571C415.455 335.15 414.936 334.559 414.561 333.801C414.19 333.042 414.004 332.156 414.004 331.142C414.004 330.119 414.19 329.226 414.561 328.464C414.936 327.701 415.455 327.108 416.12 326.687C416.789 326.265 417.567 326.054 418.453 326.054C419.34 326.054 420.115 326.265 420.78 326.687C421.449 327.108 421.969 327.701 422.34 328.464C422.715 329.226 422.902 330.119 422.902 331.142C422.902 332.156 422.715 333.042 422.34 333.801C421.969 334.559 421.449 335.15 420.78 335.571C420.115 335.993 419.34 336.204 418.453 336.204ZM418.453 334.849C419.127 334.849 419.681 334.677 420.115 334.331C420.55 333.986 420.872 333.532 421.08 332.97C421.289 332.407 421.394 331.798 421.394 331.142C421.394 330.486 421.289 329.874 421.08 329.307C420.872 328.741 420.55 328.282 420.115 327.933C419.681 327.584 419.127 327.409 418.453 327.409C417.78 327.409 417.226 327.584 416.791 327.933C416.357 328.282 416.035 328.741 415.826 329.307C415.617 329.874 415.513 330.486 415.513 331.142C415.513 331.798 415.617 332.407 415.826 332.97C416.035 333.532 416.357 333.986 416.791 334.331C417.226 334.677 417.78 334.849 418.453 334.849ZM429.168 339.886C428.439 339.886 427.813 339.792 427.289 339.605C426.765 339.422 426.328 339.179 425.978 338.876C425.633 338.578 425.358 338.258 425.154 337.917L426.355 337.074C426.492 337.253 426.664 337.457 426.873 337.687C427.082 337.922 427.368 338.124 427.73 338.295C428.096 338.469 428.576 338.557 429.168 338.557C429.961 338.557 430.615 338.365 431.13 337.981C431.646 337.598 431.904 336.997 431.904 336.179V334.184H431.776C431.665 334.363 431.507 334.585 431.303 334.849C431.103 335.109 430.813 335.341 430.434 335.546C430.059 335.746 429.551 335.846 428.912 335.846C428.12 335.846 427.408 335.659 426.777 335.284C426.151 334.909 425.654 334.363 425.288 333.647C424.926 332.932 424.745 332.062 424.745 331.04C424.745 330.034 424.922 329.158 425.275 328.412C425.629 327.662 426.121 327.083 426.752 326.674C427.382 326.26 428.111 326.054 428.938 326.054C429.577 326.054 430.084 326.16 430.459 326.373C430.838 326.582 431.128 326.821 431.328 327.089C431.533 327.353 431.691 327.571 431.801 327.741H431.955V326.182H433.412V336.281C433.412 337.125 433.221 337.811 432.837 338.339C432.458 338.872 431.946 339.262 431.303 339.509C430.664 339.76 429.952 339.886 429.168 339.886ZM429.117 334.491C429.722 334.491 430.233 334.353 430.651 334.076C431.069 333.799 431.386 333.4 431.603 332.88C431.821 332.361 431.929 331.738 431.929 331.014C431.929 330.307 431.823 329.682 431.61 329.141C431.397 328.6 431.081 328.176 430.664 327.869C430.246 327.562 429.73 327.409 429.117 327.409C428.478 327.409 427.945 327.571 427.519 327.895C427.097 328.219 426.779 328.653 426.566 329.199C426.358 329.744 426.253 330.349 426.253 331.014C426.253 331.696 426.36 332.299 426.573 332.823C426.79 333.343 427.11 333.752 427.532 334.05C427.958 334.344 428.486 334.491 429.117 334.491ZM437.145 339.682C436.89 339.682 436.662 339.66 436.461 339.618C436.261 339.579 436.123 339.541 436.046 339.503L436.429 338.173C436.796 338.267 437.12 338.301 437.401 338.275C437.682 338.25 437.931 338.124 438.149 337.898C438.37 337.677 438.573 337.317 438.756 336.818L439.037 336.051L435.407 326.182H437.043L439.753 334.005H439.855L442.566 326.182H444.202L440.034 337.432C439.847 337.939 439.615 338.358 439.338 338.691C439.061 339.027 438.739 339.277 438.373 339.439C438.01 339.601 437.601 339.682 437.145 339.682ZM290.585 357.909H292.477L296.926 368.775H297.08L301.528 357.909H303.42V371H301.938V361.054H301.81L297.719 371H296.287L292.196 361.054H292.068V371H290.585V357.909ZM306.394 371V361.182H307.903V371H306.394ZM307.161 359.545C306.867 359.545 306.614 359.445 306.401 359.245C306.192 359.045 306.088 358.804 306.088 358.522C306.088 358.241 306.192 358 306.401 357.8C306.614 357.6 306.867 357.5 307.161 357.5C307.455 357.5 307.707 357.6 307.916 357.8C308.129 358 308.235 358.241 308.235 358.522C308.235 358.804 308.129 359.045 307.916 359.245C307.707 359.445 307.455 359.545 307.161 359.545ZM312.174 365.094V371H310.666V361.182H312.123V362.716H312.251C312.481 362.217 312.831 361.817 313.299 361.514C313.768 361.207 314.373 361.054 315.115 361.054C315.779 361.054 316.361 361.19 316.86 361.463C317.358 361.731 317.746 362.14 318.023 362.69C318.3 363.236 318.439 363.926 318.439 364.761V371H316.93V364.863C316.93 364.092 316.73 363.491 316.329 363.061C315.929 362.626 315.379 362.409 314.68 362.409C314.199 362.409 313.768 362.513 313.389 362.722C313.014 362.931 312.718 363.236 312.5 363.636C312.283 364.037 312.174 364.522 312.174 365.094ZM325.184 371.204C324.297 371.204 323.52 370.993 322.851 370.571C322.186 370.15 321.666 369.559 321.291 368.801C320.92 368.042 320.735 367.156 320.735 366.142C320.735 365.119 320.92 364.226 321.291 363.464C321.666 362.701 322.186 362.108 322.851 361.687C323.52 361.265 324.297 361.054 325.184 361.054C326.07 361.054 326.846 361.265 327.51 361.687C328.18 362.108 328.699 362.701 329.07 363.464C329.445 364.226 329.633 365.119 329.633 366.142C329.633 367.156 329.445 368.042 329.07 368.801C328.699 369.559 328.18 370.15 327.51 370.571C326.846 370.993 326.07 371.204 325.184 371.204ZM325.184 369.849C325.857 369.849 326.411 369.677 326.846 369.331C327.28 368.986 327.602 368.532 327.811 367.97C328.02 367.407 328.124 366.798 328.124 366.142C328.124 365.486 328.02 364.874 327.811 364.307C327.602 363.741 327.28 363.282 326.846 362.933C326.411 362.584 325.857 362.409 325.184 362.409C324.51 362.409 323.956 362.584 323.522 362.933C323.087 363.282 322.765 363.741 322.557 364.307C322.348 364.874 322.243 365.486 322.243 366.142C322.243 366.798 322.348 367.407 322.557 367.97C322.765 368.532 323.087 368.986 323.522 369.331C323.956 369.677 324.51 369.849 325.184 369.849ZM331.935 371V361.182H333.393V362.665H333.495C333.674 362.179 333.998 361.785 334.467 361.482C334.935 361.179 335.464 361.028 336.052 361.028C336.163 361.028 336.301 361.03 336.467 361.035C336.634 361.039 336.759 361.045 336.844 361.054V362.588C336.793 362.575 336.676 362.556 336.493 362.53C336.314 362.5 336.124 362.486 335.924 362.486C335.447 362.486 335.021 362.586 334.646 362.786C334.275 362.982 333.981 363.255 333.763 363.604C333.55 363.949 333.444 364.344 333.444 364.787V371H331.935ZM345.587 363.38L344.232 363.764C344.147 363.538 344.021 363.319 343.855 363.106C343.693 362.888 343.471 362.709 343.19 362.569C342.909 362.428 342.549 362.358 342.11 362.358C341.509 362.358 341.008 362.496 340.608 362.773C340.211 363.046 340.013 363.393 340.013 363.815C340.013 364.19 340.15 364.486 340.422 364.704C340.695 364.921 341.121 365.102 341.701 365.247L343.158 365.605C344.036 365.818 344.69 366.144 345.121 366.583C345.551 367.018 345.766 367.578 345.766 368.264C345.766 368.826 345.604 369.329 345.28 369.772C344.961 370.216 344.513 370.565 343.938 370.821C343.363 371.076 342.694 371.204 341.931 371.204C340.93 371.204 340.101 370.987 339.444 370.552C338.788 370.118 338.373 369.483 338.198 368.647L339.63 368.29C339.766 368.818 340.024 369.214 340.403 369.478C340.787 369.743 341.287 369.875 341.905 369.875C342.608 369.875 343.167 369.726 343.58 369.427C343.998 369.125 344.206 368.763 344.206 368.341C344.206 368 344.087 367.714 343.849 367.484C343.61 367.25 343.243 367.075 342.749 366.96L341.113 366.576C340.214 366.363 339.553 366.033 339.131 365.586C338.714 365.134 338.505 364.569 338.505 363.892C338.505 363.338 338.66 362.848 338.971 362.422C339.287 361.995 339.715 361.661 340.256 361.418C340.802 361.175 341.42 361.054 342.11 361.054C343.081 361.054 343.844 361.267 344.398 361.693C344.956 362.119 345.353 362.682 345.587 363.38ZM349.136 371.102C348.821 371.102 348.55 370.989 348.325 370.763C348.099 370.537 347.986 370.267 347.986 369.951C347.986 369.636 348.099 369.366 348.325 369.14C348.55 368.914 348.821 368.801 349.136 368.801C349.452 368.801 349.722 368.914 349.948 369.14C350.174 369.366 350.287 369.636 350.287 369.951C350.287 370.16 350.234 370.352 350.127 370.527C350.025 370.701 349.886 370.842 349.712 370.949C349.541 371.051 349.349 371.102 349.136 371.102ZM349.136 363.815C348.821 363.815 348.55 363.702 348.325 363.476C348.099 363.25 347.986 362.98 347.986 362.665C347.986 362.349 348.099 362.079 348.325 361.853C348.55 361.627 348.821 361.514 349.136 361.514C349.452 361.514 349.722 361.627 349.948 361.853C350.174 362.079 350.287 362.349 350.287 362.665C350.287 362.873 350.234 363.065 350.127 363.24C350.025 363.415 349.886 363.555 349.712 363.662C349.541 363.764 349.349 363.815 349.136 363.815ZM358.261 371V357.909H362.838C363.75 357.909 364.502 358.067 365.094 358.382C365.686 358.693 366.127 359.113 366.417 359.641C366.707 360.165 366.852 360.747 366.852 361.386C366.852 361.949 366.752 362.413 366.551 362.78C366.355 363.146 366.096 363.436 365.772 363.649C365.452 363.862 365.105 364.02 364.73 364.122V364.25C365.13 364.275 365.533 364.416 365.938 364.672C366.343 364.927 366.681 365.294 366.954 365.771C367.227 366.248 367.363 366.832 367.363 367.522C367.363 368.179 367.214 368.769 366.916 369.293C366.618 369.817 366.147 370.233 365.503 370.54C364.86 370.846 364.022 371 362.991 371H358.261ZM359.846 369.594H362.991C364.027 369.594 364.762 369.393 365.196 368.993C365.635 368.588 365.855 368.098 365.855 367.522C365.855 367.079 365.742 366.67 365.516 366.295C365.29 365.916 364.968 365.613 364.551 365.388C364.133 365.157 363.639 365.042 363.068 365.042H359.846V369.594ZM359.846 363.662H362.787C363.264 363.662 363.694 363.568 364.078 363.38C364.466 363.193 364.772 362.929 364.998 362.588C365.228 362.247 365.343 361.846 365.343 361.386C365.343 360.811 365.143 360.323 364.743 359.922C364.342 359.518 363.707 359.315 362.838 359.315H359.846V363.662ZM375.951 366.986V361.182H377.46V371H375.951V369.338H375.849C375.619 369.836 375.261 370.26 374.775 370.61C374.289 370.955 373.675 371.128 372.934 371.128C372.32 371.128 371.775 370.993 371.298 370.725C370.82 370.452 370.445 370.043 370.173 369.498C369.9 368.948 369.763 368.255 369.763 367.42V361.182H371.272V367.318C371.272 368.034 371.472 368.605 371.873 369.031C372.278 369.457 372.793 369.67 373.42 369.67C373.795 369.67 374.176 369.574 374.564 369.383C374.956 369.191 375.284 368.897 375.548 368.5C375.817 368.104 375.951 367.599 375.951 366.986ZM387.177 363.38L385.822 363.764C385.737 363.538 385.611 363.319 385.445 363.106C385.283 362.888 385.061 362.709 384.78 362.569C384.499 362.428 384.139 362.358 383.7 362.358C383.099 362.358 382.598 362.496 382.198 362.773C381.801 363.046 381.603 363.393 381.603 363.815C381.603 364.19 381.74 364.486 382.012 364.704C382.285 364.921 382.711 365.102 383.291 365.247L384.748 365.605C385.626 365.818 386.28 366.144 386.71 366.583C387.141 367.018 387.356 367.578 387.356 368.264C387.356 368.826 387.194 369.329 386.87 369.772C386.551 370.216 386.103 370.565 385.528 370.821C384.953 371.076 384.284 371.204 383.521 371.204C382.519 371.204 381.691 370.987 381.034 370.552C380.378 370.118 379.963 369.483 379.788 368.647L381.22 368.29C381.356 368.818 381.614 369.214 381.993 369.478C382.377 369.743 382.877 369.875 383.495 369.875C384.198 369.875 384.757 369.726 385.17 369.427C385.588 369.125 385.796 368.763 385.796 368.341C385.796 368 385.677 367.714 385.438 367.484C385.2 367.25 384.833 367.075 384.339 366.96L382.703 366.576C381.803 366.363 381.143 366.033 380.721 365.586C380.303 365.134 380.095 364.569 380.095 363.892C380.095 363.338 380.25 362.848 380.561 362.422C380.877 361.995 381.305 361.661 381.846 361.418C382.392 361.175 383.009 361.054 383.7 361.054C384.671 361.054 385.434 361.267 385.988 361.693C386.546 362.119 386.943 362.682 387.177 363.38ZM389.627 371V361.182H391.135V371H389.627ZM390.394 359.545C390.1 359.545 389.846 359.445 389.633 359.245C389.424 359.045 389.32 358.804 389.32 358.522C389.32 358.241 389.424 358 389.633 357.8C389.846 357.6 390.1 357.5 390.394 357.5C390.688 357.5 390.939 357.6 391.148 357.8C391.361 358 391.468 358.241 391.468 358.522C391.468 358.804 391.361 359.045 391.148 359.245C390.939 359.445 390.688 359.545 390.394 359.545ZM395.407 365.094V371H393.898V361.182H395.356V362.716H395.483C395.714 362.217 396.063 361.817 396.532 361.514C397.001 361.207 397.606 361.054 398.347 361.054C399.012 361.054 399.594 361.19 400.092 361.463C400.591 361.731 400.979 362.14 401.256 362.69C401.532 363.236 401.671 363.926 401.671 364.761V371H400.162V364.863C400.162 364.092 399.962 363.491 399.562 363.061C399.161 362.626 398.611 362.409 397.912 362.409C397.431 362.409 397.001 362.513 396.621 362.722C396.246 362.931 395.95 363.236 395.733 363.636C395.515 364.037 395.407 364.522 395.407 365.094ZM408.544 371.204C407.598 371.204 406.782 370.995 406.096 370.578C405.414 370.156 404.888 369.568 404.517 368.814C404.151 368.055 403.967 367.173 403.967 366.167C403.967 365.162 404.151 364.275 404.517 363.508C404.888 362.737 405.403 362.136 406.064 361.706C406.729 361.271 407.504 361.054 408.391 361.054C408.902 361.054 409.407 361.139 409.906 361.309C410.404 361.48 410.858 361.757 411.267 362.14C411.676 362.52 412.002 363.022 412.245 363.649C412.488 364.275 412.609 365.047 412.609 365.963V366.602H405.041V365.298H411.075C411.075 364.744 410.964 364.25 410.743 363.815C410.526 363.38 410.214 363.037 409.81 362.786C409.409 362.535 408.936 362.409 408.391 362.409C407.79 362.409 407.27 362.558 406.831 362.856C406.396 363.15 406.062 363.534 405.827 364.007C405.593 364.48 405.476 364.987 405.476 365.528V366.397C405.476 367.139 405.604 367.768 405.859 368.283C406.119 368.795 406.479 369.184 406.94 369.453C407.4 369.717 407.935 369.849 408.544 369.849C408.94 369.849 409.298 369.794 409.618 369.683C409.942 369.568 410.221 369.397 410.455 369.172C410.69 368.942 410.871 368.656 410.999 368.315L412.456 368.724C412.303 369.219 412.045 369.653 411.683 370.028C411.32 370.399 410.873 370.689 410.34 370.897C409.808 371.102 409.209 371.204 408.544 371.204ZM421.859 363.38L420.504 363.764C420.418 363.538 420.293 363.319 420.126 363.106C419.964 362.888 419.743 362.709 419.462 362.569C419.18 362.428 418.82 362.358 418.381 362.358C417.781 362.358 417.28 362.496 416.879 362.773C416.483 363.046 416.285 363.393 416.285 363.815C416.285 364.19 416.421 364.486 416.694 364.704C416.967 364.921 417.393 365.102 417.972 365.247L419.43 365.605C420.308 365.818 420.962 366.144 421.392 366.583C421.822 367.018 422.038 367.578 422.038 368.264C422.038 368.826 421.876 369.329 421.552 369.772C421.232 370.216 420.785 370.565 420.21 370.821C419.634 371.076 418.965 371.204 418.202 371.204C417.201 371.204 416.372 370.987 415.716 370.552C415.06 370.118 414.644 369.483 414.469 368.647L415.901 368.29C416.038 368.818 416.295 369.214 416.675 369.478C417.058 369.743 417.559 369.875 418.177 369.875C418.88 369.875 419.438 369.726 419.852 369.427C420.269 369.125 420.478 368.763 420.478 368.341C420.478 368 420.359 367.714 420.12 367.484C419.881 367.25 419.515 367.075 419.021 366.96L417.384 366.576C416.485 366.363 415.825 366.033 415.403 365.586C414.985 365.134 414.776 364.569 414.776 363.892C414.776 363.338 414.932 362.848 415.243 362.422C415.558 361.995 415.987 361.661 416.528 361.418C417.073 361.175 417.691 361.054 418.381 361.054C419.353 361.054 420.116 361.267 420.67 361.693C421.228 362.119 421.624 362.682 421.859 363.38ZM431.263 363.38L429.908 363.764C429.823 363.538 429.697 363.319 429.531 363.106C429.369 362.888 429.147 362.709 428.866 362.569C428.585 362.428 428.225 362.358 427.786 362.358C427.185 362.358 426.684 362.496 426.284 362.773C425.887 363.046 425.689 363.393 425.689 363.815C425.689 364.19 425.825 364.486 426.098 364.704C426.371 364.921 426.797 365.102 427.377 365.247L428.834 365.605C429.712 365.818 430.366 366.144 430.796 366.583C431.227 367.018 431.442 367.578 431.442 368.264C431.442 368.826 431.28 369.329 430.956 369.772C430.637 370.216 430.189 370.565 429.614 370.821C429.039 371.076 428.369 371.204 427.607 371.204C426.605 371.204 425.776 370.987 425.12 370.552C424.464 370.118 424.048 369.483 423.874 368.647L425.306 368.29C425.442 368.818 425.7 369.214 426.079 369.478C426.463 369.743 426.963 369.875 427.581 369.875C428.284 369.875 428.843 369.726 429.256 369.427C429.673 369.125 429.882 368.763 429.882 368.341C429.882 368 429.763 367.714 429.524 367.484C429.286 367.25 428.919 367.075 428.425 366.96L426.789 366.576C425.889 366.363 425.229 366.033 424.807 365.586C424.389 365.134 424.181 364.569 424.181 363.892C424.181 363.338 424.336 362.848 424.647 362.422C424.963 361.995 425.391 361.661 425.932 361.418C426.477 361.175 427.095 361.054 427.786 361.054C428.757 361.054 429.52 361.267 430.074 361.693C430.632 362.119 431.029 362.682 431.263 363.38ZM435.963 369.21L435.86 369.9C435.788 370.386 435.677 370.906 435.528 371.46C435.383 372.014 435.232 372.536 435.074 373.026C434.917 373.516 434.787 373.906 434.684 374.196H433.534C433.589 373.923 433.662 373.563 433.751 373.116C433.841 372.668 433.93 372.167 434.02 371.613C434.113 371.064 434.19 370.501 434.25 369.926L434.326 369.21H435.963ZM445.61 357.909V371H444.025V357.909H445.61ZM450.092 365.094V371H448.584V361.182H450.041V362.716H450.169C450.399 362.217 450.749 361.817 451.217 361.514C451.686 361.207 452.291 361.054 453.033 361.054C453.697 361.054 454.279 361.19 454.778 361.463C455.276 361.731 455.664 362.14 455.941 362.69C456.218 363.236 456.357 363.926 456.357 364.761V371H454.848V364.863C454.848 364.092 454.648 363.491 454.247 363.061C453.847 362.626 453.297 362.409 452.598 362.409C452.116 362.409 451.686 362.513 451.307 362.722C450.932 362.931 450.636 363.236 450.418 363.636C450.201 364.037 450.092 364.522 450.092 365.094ZM463.485 361.182V362.46H458.193V361.182H463.485ZM459.778 371V359.826C459.778 359.264 459.91 358.795 460.174 358.42C460.438 358.045 460.781 357.764 461.203 357.576C461.625 357.389 462.07 357.295 462.539 357.295C462.91 357.295 463.213 357.325 463.447 357.385C463.681 357.444 463.856 357.5 463.971 357.551L463.536 358.855C463.46 358.829 463.353 358.797 463.217 358.759C463.085 358.721 462.91 358.701 462.693 358.701C462.194 358.701 461.834 358.827 461.612 359.079C461.395 359.33 461.286 359.699 461.286 360.184V371H459.778ZM469.184 371.204C468.297 371.204 467.52 370.993 466.851 370.571C466.186 370.15 465.666 369.559 465.291 368.801C464.92 368.042 464.735 367.156 464.735 366.142C464.735 365.119 464.92 364.226 465.291 363.464C465.666 362.701 466.186 362.108 466.851 361.687C467.52 361.265 468.297 361.054 469.184 361.054C470.07 361.054 470.846 361.265 471.51 361.687C472.18 362.108 472.699 362.701 473.07 363.464C473.445 364.226 473.633 365.119 473.633 366.142C473.633 367.156 473.445 368.042 473.07 368.801C472.699 369.559 472.18 370.15 471.51 370.571C470.846 370.993 470.07 371.204 469.184 371.204ZM469.184 369.849C469.857 369.849 470.411 369.677 470.846 369.331C471.28 368.986 471.602 368.532 471.811 367.97C472.02 367.407 472.124 366.798 472.124 366.142C472.124 365.486 472.02 364.874 471.811 364.307C471.602 363.741 471.28 363.282 470.846 362.933C470.411 362.584 469.857 362.409 469.184 362.409C468.51 362.409 467.956 362.584 467.522 362.933C467.087 363.282 466.765 363.741 466.557 364.307C466.348 364.874 466.243 365.486 466.243 366.142C466.243 366.798 466.348 367.407 466.557 367.97C466.765 368.532 467.087 368.986 467.522 369.331C467.956 369.677 468.51 369.849 469.184 369.849ZM475.935 371V361.182H477.393V362.665H477.495C477.674 362.179 477.998 361.785 478.467 361.482C478.935 361.179 479.464 361.028 480.052 361.028C480.163 361.028 480.301 361.03 480.467 361.035C480.634 361.039 480.759 361.045 480.844 361.054V362.588C480.793 362.575 480.676 362.556 480.493 362.53C480.314 362.5 480.124 362.486 479.924 362.486C479.447 362.486 479.021 362.586 478.646 362.786C478.275 362.982 477.981 363.255 477.763 363.604C477.55 363.949 477.444 364.344 477.444 364.787V371H475.935ZM482.633 371V361.182H484.09V362.716H484.218C484.422 362.192 484.753 361.785 485.209 361.495C485.665 361.201 486.212 361.054 486.851 361.054C487.499 361.054 488.038 361.201 488.469 361.495C488.903 361.785 489.242 362.192 489.485 362.716H489.587C489.839 362.209 490.216 361.806 490.719 361.508C491.221 361.205 491.824 361.054 492.528 361.054C493.405 361.054 494.123 361.329 494.682 361.878C495.24 362.424 495.519 363.274 495.519 364.429V371H494.01V364.429C494.01 363.704 493.812 363.187 493.416 362.875C493.02 362.564 492.553 362.409 492.016 362.409C491.326 362.409 490.791 362.618 490.412 363.035C490.032 363.449 489.843 363.973 489.843 364.608V371H488.309V364.275C488.309 363.717 488.128 363.268 487.765 362.927C487.403 362.581 486.937 362.409 486.366 362.409C485.974 362.409 485.607 362.513 485.266 362.722C484.93 362.931 484.657 363.221 484.448 363.591C484.243 363.958 484.141 364.382 484.141 364.863V371H482.633ZM501.166 371.23C500.544 371.23 499.98 371.113 499.472 370.878C498.965 370.64 498.563 370.297 498.264 369.849C497.966 369.397 497.817 368.852 497.817 368.213C497.817 367.65 497.928 367.194 498.149 366.845C498.371 366.491 498.667 366.214 499.038 366.014C499.409 365.814 499.818 365.665 500.265 365.567C500.717 365.464 501.171 365.383 501.627 365.324C502.223 365.247 502.707 365.189 503.078 365.151C503.453 365.108 503.725 365.038 503.896 364.94C504.07 364.842 504.158 364.672 504.158 364.429V364.378C504.158 363.747 503.985 363.257 503.64 362.907C503.299 362.558 502.781 362.383 502.087 362.383C501.367 362.383 500.802 362.541 500.393 362.856C499.984 363.172 499.696 363.508 499.53 363.866L498.098 363.355C498.354 362.758 498.695 362.294 499.121 361.961C499.551 361.625 500.02 361.39 500.527 361.258C501.039 361.122 501.541 361.054 502.036 361.054C502.351 361.054 502.713 361.092 503.122 361.169C503.536 361.241 503.934 361.393 504.318 361.623C504.705 361.853 505.027 362.2 505.283 362.665C505.539 363.129 505.666 363.751 505.666 364.531V371H504.158V369.67H504.081C503.979 369.883 503.808 370.111 503.57 370.354C503.331 370.597 503.014 370.804 502.617 370.974C502.221 371.145 501.737 371.23 501.166 371.23ZM501.396 369.875C501.993 369.875 502.496 369.758 502.905 369.523C503.318 369.289 503.629 368.986 503.838 368.616C504.051 368.245 504.158 367.855 504.158 367.446V366.065C504.094 366.142 503.953 366.212 503.736 366.276C503.523 366.336 503.276 366.389 502.994 366.436C502.718 366.478 502.447 366.517 502.183 366.551C501.923 366.581 501.712 366.606 501.55 366.628C501.158 366.679 500.791 366.762 500.45 366.877C500.114 366.988 499.841 367.156 499.632 367.382C499.428 367.603 499.325 367.906 499.325 368.29C499.325 368.814 499.519 369.21 499.907 369.478C500.299 369.743 500.796 369.875 501.396 369.875ZM512.69 361.182V362.46H507.602V361.182H512.69ZM509.085 358.829H510.593V368.187C510.593 368.613 510.655 368.933 510.778 369.146C510.906 369.355 511.068 369.495 511.264 369.568C511.464 369.636 511.675 369.67 511.897 369.67C512.063 369.67 512.2 369.662 512.306 369.645C512.413 369.623 512.498 369.606 512.562 369.594L512.869 370.949C512.766 370.987 512.624 371.025 512.44 371.064C512.257 371.106 512.025 371.128 511.744 371.128C511.317 371.128 510.9 371.036 510.491 370.853C510.086 370.67 509.749 370.39 509.481 370.015C509.217 369.64 509.085 369.167 509.085 368.596V358.829ZM514.959 371V361.182H516.467V371H514.959ZM515.726 359.545C515.432 359.545 515.178 359.445 514.965 359.245C514.756 359.045 514.652 358.804 514.652 358.522C514.652 358.241 514.756 358 514.965 357.8C515.178 357.6 515.432 357.5 515.726 357.5C516.02 357.5 516.271 357.6 516.48 357.8C516.693 358 516.8 358.241 516.8 358.522C516.8 358.804 516.693 359.045 516.48 359.245C516.271 359.445 516.02 359.545 515.726 359.545ZM523.219 371.204C522.333 371.204 521.555 370.993 520.886 370.571C520.221 370.15 519.701 369.559 519.326 368.801C518.955 368.042 518.77 367.156 518.77 366.142C518.77 365.119 518.955 364.226 519.326 363.464C519.701 362.701 520.221 362.108 520.886 361.687C521.555 361.265 522.333 361.054 523.219 361.054C524.105 361.054 524.881 361.265 525.546 361.687C526.215 362.108 526.735 362.701 527.105 363.464C527.48 364.226 527.668 365.119 527.668 366.142C527.668 367.156 527.48 368.042 527.105 368.801C526.735 369.559 526.215 370.15 525.546 370.571C524.881 370.993 524.105 371.204 523.219 371.204ZM523.219 369.849C523.892 369.849 524.446 369.677 524.881 369.331C525.316 368.986 525.637 368.532 525.846 367.97C526.055 367.407 526.159 366.798 526.159 366.142C526.159 365.486 526.055 364.874 525.846 364.307C525.637 363.741 525.316 363.282 524.881 362.933C524.446 362.584 523.892 362.409 523.219 362.409C522.546 362.409 521.992 362.584 521.557 362.933C521.122 363.282 520.801 363.741 520.592 364.307C520.383 364.874 520.279 365.486 520.279 366.142C520.279 366.798 520.383 367.407 520.592 367.97C520.801 368.532 521.122 368.986 521.557 369.331C521.992 369.677 522.546 369.849 523.219 369.849ZM531.479 365.094V371H529.971V361.182H531.428V362.716H531.556C531.786 362.217 532.135 361.817 532.604 361.514C533.073 361.207 533.678 361.054 534.419 361.054C535.084 361.054 535.666 361.19 536.164 361.463C536.663 361.731 537.051 362.14 537.328 362.69C537.605 363.236 537.743 363.926 537.743 364.761V371H536.235V364.863C536.235 364.092 536.034 363.491 535.634 363.061C535.233 362.626 534.684 362.409 533.985 362.409C533.503 362.409 533.073 362.513 532.694 362.722C532.319 362.931 532.022 363.236 531.805 363.636C531.588 364.037 531.479 364.522 531.479 365.094ZM552.926 361.182C552.849 360.534 552.538 360.031 551.993 359.673C551.447 359.315 550.778 359.136 549.986 359.136C549.406 359.136 548.899 359.23 548.464 359.417C548.034 359.605 547.697 359.863 547.454 360.191C547.216 360.519 547.096 360.892 547.096 361.309C547.096 361.659 547.18 361.959 547.346 362.211C547.516 362.458 547.733 362.665 547.998 362.831C548.262 362.993 548.539 363.127 548.829 363.233C549.118 363.336 549.385 363.419 549.628 363.483L550.957 363.841C551.298 363.93 551.677 364.054 552.095 364.211C552.517 364.369 552.92 364.584 553.303 364.857C553.691 365.125 554.01 365.471 554.262 365.893C554.513 366.314 554.639 366.832 554.639 367.446C554.639 368.153 554.454 368.792 554.083 369.363C553.716 369.934 553.18 370.388 552.472 370.725C551.769 371.062 550.915 371.23 549.909 371.23C548.971 371.23 548.16 371.079 547.474 370.776C546.792 370.473 546.255 370.052 545.863 369.51C545.475 368.969 545.256 368.341 545.204 367.625H546.841C546.883 368.119 547.05 368.528 547.339 368.852C547.633 369.172 548.004 369.41 548.452 369.568C548.903 369.721 549.389 369.798 549.909 369.798C550.514 369.798 551.057 369.7 551.539 369.504C552.02 369.304 552.402 369.027 552.683 368.673C552.964 368.315 553.105 367.897 553.105 367.42C553.105 366.986 552.983 366.632 552.741 366.359C552.498 366.086 552.178 365.865 551.782 365.694C551.385 365.524 550.957 365.375 550.497 365.247L548.886 364.787C547.863 364.493 547.054 364.073 546.457 363.527C545.861 362.982 545.562 362.268 545.562 361.386C545.562 360.653 545.76 360.014 546.157 359.469C546.557 358.919 547.094 358.493 547.768 358.19C548.445 357.883 549.202 357.73 550.037 357.73C550.881 357.73 551.631 357.881 552.287 358.184C552.943 358.482 553.463 358.891 553.846 359.411C554.234 359.931 554.439 360.521 554.46 361.182H552.926ZM558.012 374.682C557.757 374.682 557.529 374.66 557.328 374.618C557.128 374.579 556.99 374.541 556.913 374.503L557.297 373.173C557.663 373.267 557.987 373.301 558.268 373.275C558.549 373.25 558.799 373.124 559.016 372.898C559.238 372.677 559.44 372.317 559.623 371.818L559.904 371.051L556.274 361.182H557.91L560.62 369.005H560.723L563.433 361.182H565.069L560.902 372.432C560.714 372.939 560.482 373.358 560.205 373.691C559.928 374.027 559.606 374.277 559.24 374.439C558.877 374.601 558.468 374.682 558.012 374.682ZM574.015 363.38L572.66 363.764C572.575 363.538 572.449 363.319 572.283 363.106C572.121 362.888 571.899 362.709 571.618 362.569C571.337 362.428 570.977 362.358 570.538 362.358C569.937 362.358 569.436 362.496 569.036 362.773C568.639 363.046 568.441 363.393 568.441 363.815C568.441 364.19 568.577 364.486 568.85 364.704C569.123 364.921 569.549 365.102 570.129 365.247L571.586 365.605C572.464 365.818 573.118 366.144 573.548 366.583C573.979 367.018 574.194 367.578 574.194 368.264C574.194 368.826 574.032 369.329 573.708 369.772C573.388 370.216 572.941 370.565 572.366 370.821C571.79 371.076 571.121 371.204 570.359 371.204C569.357 371.204 568.528 370.987 567.872 370.552C567.216 370.118 566.8 369.483 566.626 368.647L568.058 368.29C568.194 368.818 568.452 369.214 568.831 369.478C569.214 369.743 569.715 369.875 570.333 369.875C571.036 369.875 571.594 369.726 572.008 369.427C572.425 369.125 572.634 368.763 572.634 368.341C572.634 368 572.515 367.714 572.276 367.484C572.038 367.25 571.671 367.075 571.177 366.96L569.54 366.576C568.641 366.363 567.981 366.033 567.559 365.586C567.141 365.134 566.933 364.569 566.933 363.892C566.933 363.338 567.088 362.848 567.399 362.422C567.714 361.995 568.143 361.661 568.684 361.418C569.229 361.175 569.847 361.054 570.538 361.054C571.509 361.054 572.272 361.267 572.826 361.693C573.384 362.119 573.781 362.682 574.015 363.38ZM580.735 361.182V362.46H575.646V361.182H580.735ZM577.129 358.829H578.638V368.187C578.638 368.613 578.7 368.933 578.823 369.146C578.951 369.355 579.113 369.495 579.309 369.568C579.509 369.636 579.72 369.67 579.942 369.67C580.108 369.67 580.244 369.662 580.351 369.645C580.458 369.623 580.543 369.606 580.607 369.594L580.914 370.949C580.811 370.987 580.669 371.025 580.485 371.064C580.302 371.106 580.07 371.128 579.789 371.128C579.362 371.128 578.945 371.036 578.536 370.853C578.131 370.67 577.794 370.39 577.526 370.015C577.262 369.64 577.129 369.167 577.129 368.596V358.829ZM587.015 371.204C586.069 371.204 585.253 370.995 584.567 370.578C583.885 370.156 583.358 369.568 582.988 368.814C582.621 368.055 582.438 367.173 582.438 366.167C582.438 365.162 582.621 364.275 582.988 363.508C583.358 362.737 583.874 362.136 584.535 361.706C585.199 361.271 585.975 361.054 586.861 361.054C587.373 361.054 587.878 361.139 588.376 361.309C588.875 361.48 589.329 361.757 589.738 362.14C590.147 362.52 590.473 363.022 590.716 363.649C590.959 364.275 591.08 365.047 591.08 365.963V366.602H583.512V365.298H589.546C589.546 364.744 589.435 364.25 589.214 363.815C588.996 363.38 588.685 363.037 588.28 362.786C587.88 362.535 587.407 362.409 586.861 362.409C586.26 362.409 585.741 362.558 585.302 362.856C584.867 363.15 584.532 363.534 584.298 364.007C584.064 364.48 583.947 364.987 583.947 365.528V366.397C583.947 367.139 584.074 367.768 584.33 368.283C584.59 368.795 584.95 369.184 585.41 369.453C585.871 369.717 586.405 369.849 587.015 369.849C587.411 369.849 587.769 369.794 588.089 369.683C588.412 369.568 588.692 369.397 588.926 369.172C589.16 368.942 589.341 368.656 589.469 368.315L590.927 368.724C590.773 369.219 590.515 369.653 590.153 370.028C589.791 370.399 589.344 370.689 588.811 370.897C588.278 371.102 587.68 371.204 587.015 371.204ZM593.375 371V361.182H594.832V362.716H594.96C595.165 362.192 595.495 361.785 595.951 361.495C596.407 361.201 596.954 361.054 597.594 361.054C598.241 361.054 598.78 361.201 599.211 361.495C599.645 361.785 599.984 362.192 600.227 362.716H600.329C600.581 362.209 600.958 361.806 601.461 361.508C601.964 361.205 602.567 361.054 603.27 361.054C604.148 361.054 604.866 361.329 605.424 361.878C605.982 362.424 606.261 363.274 606.261 364.429V371H604.753V364.429C604.753 363.704 604.555 363.187 604.158 362.875C603.762 362.564 603.295 362.409 602.758 362.409C602.068 362.409 601.533 362.618 601.154 363.035C600.775 363.449 600.585 363.973 600.585 364.608V371H599.051V364.275C599.051 363.717 598.87 363.268 598.508 362.927C598.145 362.581 597.679 362.409 597.108 362.409C596.716 362.409 596.349 362.513 596.008 362.722C595.672 362.931 595.399 363.221 595.19 363.591C594.986 363.958 594.883 364.382 594.883 364.863V371H593.375ZM615.974 363.38L614.619 363.764C614.534 363.538 614.408 363.319 614.242 363.106C614.08 362.888 613.858 362.709 613.577 362.569C613.296 362.428 612.936 362.358 612.497 362.358C611.896 362.358 611.395 362.496 610.994 362.773C610.598 363.046 610.4 363.393 610.4 363.815C610.4 364.19 610.536 364.486 610.809 364.704C611.082 364.921 611.508 365.102 612.088 365.247L613.545 365.605C614.423 365.818 615.077 366.144 615.507 366.583C615.938 367.018 616.153 367.578 616.153 368.264C616.153 368.826 615.991 369.329 615.667 369.772C615.347 370.216 614.9 370.565 614.325 370.821C613.749 371.076 613.08 371.204 612.318 371.204C611.316 371.204 610.487 370.987 609.831 370.552C609.175 370.118 608.759 369.483 608.585 368.647L610.017 368.29C610.153 368.818 610.411 369.214 610.79 369.478C611.173 369.743 611.674 369.875 612.292 369.875C612.995 369.875 613.553 369.726 613.967 369.427C614.384 369.125 614.593 368.763 614.593 368.341C614.593 368 614.474 367.714 614.235 367.484C613.997 367.25 613.63 367.075 613.136 366.96L611.499 366.576C610.6 366.363 609.94 366.033 609.518 365.586C609.1 365.134 608.892 364.569 608.892 363.892C608.892 363.338 609.047 362.848 609.358 362.422C609.673 361.995 610.102 361.661 610.643 361.418C611.188 361.175 611.806 361.054 612.497 361.054C613.468 361.054 614.231 361.267 614.785 361.693C615.343 362.119 615.74 362.682 615.974 363.38ZM620.674 369.21L620.571 369.9C620.499 370.386 620.388 370.906 620.239 371.46C620.094 372.014 619.943 372.536 619.785 373.026C619.627 373.516 619.498 373.906 619.395 374.196H618.245C618.3 373.923 618.373 373.563 618.462 373.116C618.551 372.668 618.641 372.167 618.73 371.613C618.824 371.064 618.901 370.501 618.961 369.926L619.037 369.21H620.674ZM635.895 361.182C635.818 360.534 635.507 360.031 634.961 359.673C634.416 359.315 633.747 359.136 632.954 359.136C632.375 359.136 631.868 359.23 631.433 359.417C631.003 359.605 630.666 359.863 630.423 360.191C630.184 360.519 630.065 360.892 630.065 361.309C630.065 361.659 630.148 361.959 630.314 362.211C630.485 362.458 630.702 362.665 630.966 362.831C631.231 362.993 631.508 363.127 631.797 363.233C632.087 363.336 632.354 363.419 632.596 363.483L633.926 363.841C634.267 363.93 634.646 364.054 635.064 364.211C635.486 364.369 635.888 364.584 636.272 364.857C636.66 365.125 636.979 365.471 637.231 365.893C637.482 366.314 637.608 366.832 637.608 367.446C637.608 368.153 637.422 368.792 637.052 369.363C636.685 369.934 636.148 370.388 635.441 370.725C634.738 371.062 633.883 371.23 632.878 371.23C631.94 371.23 631.128 371.079 630.442 370.776C629.76 370.473 629.224 370.052 628.831 369.51C628.444 368.969 628.224 368.341 628.173 367.625H629.809C629.852 368.119 630.018 368.528 630.308 368.852C630.602 369.172 630.973 369.41 631.42 369.568C631.872 369.721 632.358 369.798 632.878 369.798C633.483 369.798 634.026 369.7 634.508 369.504C634.989 369.304 635.371 369.027 635.652 368.673C635.933 368.315 636.074 367.897 636.074 367.42C636.074 366.986 635.952 366.632 635.709 366.359C635.466 366.086 635.147 365.865 634.751 365.694C634.354 365.524 633.926 365.375 633.466 365.247L631.855 364.787C630.832 364.493 630.023 364.073 629.426 363.527C628.829 362.982 628.531 362.268 628.531 361.386C628.531 360.653 628.729 360.014 629.126 359.469C629.526 358.919 630.063 358.493 630.736 358.19C631.414 357.883 632.17 357.73 633.006 357.73C633.849 357.73 634.599 357.881 635.256 358.184C635.912 358.482 636.432 358.891 636.815 359.411C637.203 359.931 637.407 360.521 637.429 361.182H635.895ZM644.279 361.182V362.46H639.191V361.182H644.279ZM640.674 358.829H642.183V368.187C642.183 368.613 642.245 368.933 642.368 369.146C642.496 369.355 642.658 369.495 642.854 369.568C643.054 369.636 643.265 369.67 643.487 369.67C643.653 369.67 643.789 369.662 643.896 369.645C644.002 369.623 644.088 369.606 644.152 369.594L644.458 370.949C644.356 370.987 644.213 371.025 644.03 371.064C643.847 371.106 643.615 371.128 643.333 371.128C642.907 371.128 642.49 371.036 642.081 370.853C641.676 370.67 641.339 370.39 641.071 370.015C640.806 369.64 640.674 369.167 640.674 368.596V358.829ZM649.438 371.23C648.816 371.23 648.251 371.113 647.744 370.878C647.237 370.64 646.834 370.297 646.536 369.849C646.238 369.397 646.088 368.852 646.088 368.213C646.088 367.65 646.199 367.194 646.421 366.845C646.642 366.491 646.939 366.214 647.309 366.014C647.68 365.814 648.089 365.665 648.537 365.567C648.988 365.464 649.442 365.383 649.898 365.324C650.495 365.247 650.978 365.189 651.349 365.151C651.724 365.108 651.997 365.038 652.167 364.94C652.342 364.842 652.429 364.672 652.429 364.429V364.378C652.429 363.747 652.257 363.257 651.912 362.907C651.571 362.558 651.053 362.383 650.358 362.383C649.638 362.383 649.074 362.541 648.664 362.856C648.255 363.172 647.968 363.508 647.801 363.866L646.37 363.355C646.625 362.758 646.966 362.294 647.392 361.961C647.823 361.625 648.292 361.39 648.799 361.258C649.31 361.122 649.813 361.054 650.307 361.054C650.623 361.054 650.985 361.092 651.394 361.169C651.807 361.241 652.206 361.393 652.589 361.623C652.977 361.853 653.299 362.2 653.554 362.665C653.81 363.129 653.938 363.751 653.938 364.531V371H652.429V369.67H652.353C652.25 369.883 652.08 370.111 651.841 370.354C651.603 370.597 651.285 370.804 650.889 370.974C650.493 371.145 650.009 371.23 649.438 371.23ZM649.668 369.875C650.265 369.875 650.767 369.758 651.176 369.523C651.59 369.289 651.901 368.986 652.11 368.616C652.323 368.245 652.429 367.855 652.429 367.446V366.065C652.365 366.142 652.225 366.212 652.007 366.276C651.794 366.336 651.547 366.389 651.266 366.436C650.989 366.478 650.718 366.517 650.454 366.551C650.194 366.581 649.983 366.606 649.821 366.628C649.429 366.679 649.063 366.762 648.722 366.877C648.385 366.988 648.113 367.156 647.904 367.382C647.699 367.603 647.597 367.906 647.597 368.29C647.597 368.814 647.791 369.21 648.179 369.478C648.571 369.743 649.067 369.875 649.668 369.875ZM660.961 361.182V362.46H655.873V361.182H660.961ZM657.356 358.829H658.865V368.187C658.865 368.613 658.926 368.933 659.05 369.146C659.178 369.355 659.34 369.495 659.536 369.568C659.736 369.636 659.947 369.67 660.169 369.67C660.335 369.67 660.471 369.662 660.578 369.645C660.684 369.623 660.769 369.606 660.833 369.594L661.14 370.949C661.038 370.987 660.895 371.025 660.712 371.064C660.529 371.106 660.296 371.128 660.015 371.128C659.589 371.128 659.171 371.036 658.762 370.853C658.357 370.67 658.021 370.39 657.752 370.015C657.488 369.64 657.356 369.167 657.356 368.596V358.829ZM663.23 371V361.182H664.739V371H663.23ZM663.997 359.545C663.703 359.545 663.45 359.445 663.237 359.245C663.028 359.045 662.923 358.804 662.923 358.522C662.923 358.241 663.028 358 663.237 357.8C663.45 357.6 663.703 357.5 663.997 357.5C664.291 357.5 664.543 357.6 664.752 357.8C664.965 358 665.071 358.241 665.071 358.522C665.071 358.804 664.965 359.045 664.752 359.245C664.543 359.445 664.291 359.545 663.997 359.545ZM674.456 363.38L673.101 363.764C673.016 363.538 672.89 363.319 672.724 363.106C672.562 362.888 672.341 362.709 672.059 362.569C671.778 362.428 671.418 362.358 670.979 362.358C670.378 362.358 669.877 362.496 669.477 362.773C669.081 363.046 668.882 363.393 668.882 363.815C668.882 364.19 669.019 364.486 669.292 364.704C669.564 364.921 669.99 365.102 670.57 365.247L672.027 365.605C672.905 365.818 673.559 366.144 673.99 366.583C674.42 367.018 674.635 367.578 674.635 368.264C674.635 368.826 674.473 369.329 674.15 369.772C673.83 370.216 673.382 370.565 672.807 370.821C672.232 371.076 671.563 371.204 670.8 371.204C669.799 371.204 668.97 370.987 668.314 370.552C667.657 370.118 667.242 369.483 667.067 368.647L668.499 368.29C668.635 368.818 668.893 369.214 669.272 369.478C669.656 369.743 670.157 369.875 670.775 369.875C671.478 369.875 672.036 369.726 672.449 369.427C672.867 369.125 673.076 368.763 673.076 368.341C673.076 368 672.956 367.714 672.718 367.484C672.479 367.25 672.113 367.075 671.618 366.96L669.982 366.576C669.083 366.363 668.422 366.033 668 365.586C667.583 365.134 667.374 364.569 667.374 363.892C667.374 363.338 667.529 362.848 667.841 362.422C668.156 361.995 668.584 361.661 669.125 361.418C669.671 361.175 670.289 361.054 670.979 361.054C671.951 361.054 672.713 361.267 673.267 361.693C673.826 362.119 674.222 362.682 674.456 363.38ZM681.176 361.182V362.46H676.088V361.182H681.176ZM677.571 358.829H679.079V368.187C679.079 368.613 679.141 368.933 679.265 369.146C679.393 369.355 679.555 369.495 679.751 369.568C679.951 369.636 680.162 369.67 680.383 369.67C680.55 369.67 680.686 369.662 680.792 369.645C680.899 369.623 680.984 369.606 681.048 369.594L681.355 370.949C681.253 370.987 681.11 371.025 680.927 371.064C680.743 371.106 680.511 371.128 680.23 371.128C679.804 371.128 679.386 371.036 678.977 370.853C678.572 370.67 678.236 370.39 677.967 370.015C677.703 369.64 677.571 369.167 677.571 368.596V358.829ZM683.445 371V361.182H684.954V371H683.445ZM684.212 359.545C683.918 359.545 683.665 359.445 683.452 359.245C683.243 359.045 683.138 358.804 683.138 358.522C683.138 358.241 683.243 358 683.452 357.8C683.665 357.6 683.918 357.5 684.212 357.5C684.506 357.5 684.758 357.6 684.966 357.8C685.18 358 685.286 358.241 685.286 358.522C685.286 358.804 685.18 359.045 684.966 359.245C684.758 359.445 684.506 359.545 684.212 359.545ZM691.705 371.204C690.785 371.204 689.992 370.987 689.327 370.552C688.663 370.118 688.151 369.519 687.793 368.756C687.435 367.993 687.256 367.122 687.256 366.142C687.256 365.145 687.44 364.265 687.806 363.502C688.177 362.735 688.692 362.136 689.353 361.706C690.018 361.271 690.793 361.054 691.68 361.054C692.37 361.054 692.992 361.182 693.546 361.437C694.1 361.693 694.554 362.051 694.908 362.511C695.261 362.971 695.481 363.508 695.566 364.122H694.058C693.942 363.674 693.687 363.278 693.29 362.933C692.898 362.584 692.37 362.409 691.705 362.409C691.117 362.409 690.602 362.562 690.158 362.869C689.719 363.172 689.376 363.6 689.129 364.154C688.886 364.704 688.765 365.349 688.765 366.091C688.765 366.849 688.884 367.51 689.123 368.072C689.366 368.635 689.707 369.071 690.146 369.383C690.589 369.694 691.109 369.849 691.705 369.849C692.097 369.849 692.453 369.781 692.773 369.645C693.092 369.508 693.363 369.312 693.585 369.057C693.806 368.801 693.964 368.494 694.058 368.136H695.566C695.481 368.716 695.27 369.238 694.933 369.702C694.601 370.162 694.16 370.529 693.61 370.802C693.065 371.07 692.43 371.204 691.705 371.204ZM704.726 363.38L703.371 363.764C703.286 363.538 703.16 363.319 702.994 363.106C702.832 362.888 702.61 362.709 702.329 362.569C702.048 362.428 701.688 362.358 701.249 362.358C700.648 362.358 700.147 362.496 699.746 362.773C699.35 363.046 699.152 363.393 699.152 363.815C699.152 364.19 699.288 364.486 699.561 364.704C699.834 364.921 700.26 365.102 700.839 365.247L702.297 365.605C703.175 365.818 703.829 366.144 704.259 366.583C704.69 367.018 704.905 367.578 704.905 368.264C704.905 368.826 704.743 369.329 704.419 369.772C704.099 370.216 703.652 370.565 703.077 370.821C702.501 371.076 701.832 371.204 701.07 371.204C700.068 371.204 699.239 370.987 698.583 370.552C697.927 370.118 697.511 369.483 697.337 368.647L698.768 368.29C698.905 368.818 699.163 369.214 699.542 369.478C699.925 369.743 700.426 369.875 701.044 369.875C701.747 369.875 702.305 369.726 702.719 369.427C703.136 369.125 703.345 368.763 703.345 368.341C703.345 368 703.226 367.714 702.987 367.484C702.749 367.25 702.382 367.075 701.888 366.96L700.251 366.576C699.352 366.363 698.692 366.033 698.27 365.586C697.852 365.134 697.643 364.569 697.643 363.892C697.643 363.338 697.799 362.848 698.11 362.422C698.425 361.995 698.854 361.661 699.395 361.418C699.94 361.175 700.558 361.054 701.249 361.054C702.22 361.054 702.983 361.267 703.537 361.693C704.095 362.119 704.491 362.682 704.726 363.38Z" fill="white"/>
<defs>
<filter id="filter0_d_200_293" x="139" y="106" width="368" height="238" filterUnits="userSpaceOnUse" color-interpolation-filters="sRGB">
<feFlood flood-opacity="0" result="BackgroundImageFix"/>
<feColorMatrix in="SourceAlpha" type="matrix" values="0 0 0 0 0 0 0 0 0 0 0 0 0 0 0 0 0 0 127 0" result="hardAlpha"/>
<feOffset dy="5"/>
<feGaussianBlur stdDeviation="5"/>
<feComposite in2="hardAlpha" operator="out"/>
<feColorMatrix type="matrix" values="0 0 0 0 0 0 0 0 0 0 0 0 0 0 0 0 0 0 0.25 0"/>
<feBlend mode="normal" in2="BackgroundImageFix" result="effect1_dropShadow_200_293"/>
<feBlend mode="normal" in="SourceGraphic" in2="effect1_dropShadow_200_293" result="shape"/>
</filter>
<filter id="filter1_d_200_293" x="883" y="315" width="174" height="238" filterUnits="userSpaceOnUse" color-interpolation-filters="sRGB">
<feFlood flood-opacity="0" result="BackgroundImageFix"/>
<feColorMatrix in="SourceAlpha" type="matrix" values="0 0 0 0 0 0 0 0 0 0 0 0 0 0 0 0 0 0 127 0" result="hardAlpha"/>
<feOffset dy="5"/>
<feGaussianBlur stdDeviation="5"/>
<feComposite in2="hardAlpha" operator="out"/>
<feColorMatrix type="matrix" values="0 0 0 0 0 0 0 0 0 0 0 0 0 0 0 0 0 0 0.25 0"/>
<feBlend mode="normal" in2="BackgroundImageFix" result="effect1_dropShadow_200_293"/>
<feBlend mode="normal" in="SourceGraphic" in2="effect1_dropShadow_200_293" result="shape"/>
</filter>
<filter id="filter2_d_200_293" x="217" y="153" width="561" height="291" filterUnits="userSpaceOnUse" color-interpolation-filters="sRGB">
<feFlood flood-opacity="0" result="BackgroundImageFix"/>
<feColorMatrix in="SourceAlpha" type="matrix" values="0 0 0 0 0 0 0 0 0 0 0 0 0 0 0 0 0 0 127 0" result="hardAlpha"/>
<feOffset dy="5"/>
<feGaussianBlur stdDeviation="5"/>
<feComposite in2="hardAlpha" operator="out"/>
<feColorMatrix type="matrix" values="0 0 0 0 0 0 0 0 0 0 0 0 0 0 0 0 0 0 0.25 0"/>
<feBlend mode="normal" in2="BackgroundImageFix" result="effect1_dropShadow_200_293"/>
<feBlend mode="normal" in="SourceGraphic" in2="effect1_dropShadow_200_293" result="shape"/>
</filter>
<linearGradient id="paint0_linear_200_293" x1="323" y1="111" x2="323" y2="329" gradientUnits="userSpaceOnUse">
<stop stop-color="#C31432"/>
<stop offset="1" stop-color="#C31432" stop-opacity="0.32"/>
</linearGradient>
<linearGradient id="paint1_linear_200_293" x1="77" y1="0" x2="77" y2="218" gradientUnits="userSpaceOnUse">
<stop stop-color="#C31432"/>
<stop offset="0.605" stop-color="#C31432" stop-opacity="0"/>
</linearGradient>
</defs>
</svg>
